<svg width="15" height="17" viewBox="0 0 15 17" fill="none" xmlns="http://www.w3.org/2000/svg">
<path d="M11.2652 1.89252V0.614455C11.2652 0.278553 10.9866 0 10.6507 0C10.3148 0 10.0363 0.278553 10.0363 0.614455V1.84336H4.711V0.614455C4.711 0.278553 4.43245 0 4.09655 0C3.76065 0 3.48209 0.278553 3.48209 0.614455V1.89252C1.27006 2.09734 0.196808 3.41637 0.0329535 5.37443C0.016568 5.61202 0.213194 5.80865 0.44259 5.80865H14.3047C14.5423 5.80865 14.7389 5.60383 14.7143 5.37443C14.5504 3.41637 13.4772 2.09734 11.2652 1.89252Z" fill="#C8CDD5"/>
<path d="M13.9276 7.03763H0.819273C0.368673 7.03763 0 7.40631 0 7.85691V12.9036C0 15.3615 1.22891 17 4.09637 17H10.6506C13.518 17 14.7469 15.3615 14.7469 12.9036V7.85691C14.7469 7.40631 14.3782 7.03763 13.9276 7.03763ZM5.08769 13.895C5.04672 13.9277 5.00576 13.9687 4.9648 13.9933C4.91564 14.026 4.86648 14.0506 4.81733 14.067C4.76817 14.0916 4.71901 14.108 4.66986 14.1162C4.61251 14.1243 4.56335 14.1325 4.506 14.1325C4.3995 14.1325 4.29299 14.108 4.19468 14.067C4.08817 14.026 4.00625 13.9687 3.92432 13.895C3.77685 13.7393 3.68673 13.5263 3.68673 13.3133C3.68673 13.1003 3.77685 12.8872 3.92432 12.7316C4.00625 12.6578 4.08817 12.6005 4.19468 12.5595C4.34215 12.494 4.506 12.4776 4.66986 12.5104C4.71901 12.5186 4.76817 12.535 4.81733 12.5595C4.86648 12.5759 4.91564 12.6005 4.9648 12.6333L5.08769 12.7316C5.23516 12.8872 5.32528 13.1003 5.32528 13.3133C5.32528 13.5263 5.23516 13.7393 5.08769 13.895ZM5.08769 11.0275C4.93202 11.175 4.71901 11.2651 4.506 11.2651C4.29299 11.2651 4.07998 11.175 3.92432 11.0275C3.77685 10.8718 3.68673 10.6588 3.68673 10.4458C3.68673 10.2328 3.77685 10.0198 3.92432 9.86413C4.15371 9.63473 4.51419 9.561 4.81733 9.69208C4.92383 9.73304 5.01395 9.79039 5.08769 9.86413C5.23516 10.0198 5.32528 10.2328 5.32528 10.4458C5.32528 10.6588 5.23516 10.8718 5.08769 11.0275ZM7.95514 13.895C7.79948 14.0424 7.58647 14.1325 7.37346 14.1325C7.16045 14.1325 6.94744 14.0424 6.79177 13.895C6.6443 13.7393 6.55418 13.5263 6.55418 13.3133C6.55418 13.1003 6.6443 12.8872 6.79177 12.7316C7.09491 12.4285 7.65201 12.4285 7.95514 12.7316C8.10261 12.8872 8.19273 13.1003 8.19273 13.3133C8.19273 13.5263 8.10261 13.7393 7.95514 13.895ZM7.95514 11.0275C7.91418 11.0603 7.87322 11.093 7.83225 11.1258C7.78309 11.1586 7.73394 11.1832 7.68478 11.1995C7.63563 11.2241 7.58647 11.2405 7.53731 11.2487C7.47996 11.2569 7.43081 11.2651 7.37346 11.2651C7.16045 11.2651 6.94744 11.175 6.79177 11.0275C6.6443 10.8718 6.55418 10.6588 6.55418 10.4458C6.55418 10.2328 6.6443 10.0198 6.79177 9.86413C6.86551 9.79039 6.95563 9.73304 7.06213 9.69208C7.36527 9.561 7.72575 9.63473 7.95514 9.86413C8.10261 10.0198 8.19273 10.2328 8.19273 10.4458C8.19273 10.6588 8.10261 10.8718 7.95514 11.0275ZM10.8226 13.895C10.6669 14.0424 10.4539 14.1325 10.2409 14.1325C10.0279 14.1325 9.81489 14.0424 9.65923 13.895C9.51176 13.7393 9.42164 13.5263 9.42164 13.3133C9.42164 13.1003 9.51176 12.8872 9.65923 12.7316C9.96236 12.4285 10.5195 12.4285 10.8226 12.7316C10.9701 12.8872 11.0602 13.1003 11.0602 13.3133C11.0602 13.5263 10.9701 13.7393 10.8226 13.895ZM10.8226 11.0275C10.7816 11.0603 10.7407 11.093 10.6997 11.1258C10.6505 11.1586 10.6014 11.1832 10.5522 11.1995C10.5031 11.2241 10.4539 11.2405 10.4048 11.2487C10.3474 11.2569 10.2901 11.2651 10.2409 11.2651C10.0279 11.2651 9.81489 11.175 9.65923 11.0275C9.51176 10.8718 9.42164 10.6588 9.42164 10.4458C9.42164 10.2328 9.51176 10.0198 9.65923 9.86413C9.74116 9.79039 9.82308 9.73304 9.92959 9.69208C10.0771 9.62654 10.2409 9.61015 10.4048 9.64292C10.4539 9.65112 10.5031 9.6675 10.5522 9.69208C10.6014 9.70847 10.6505 9.73305 10.6997 9.76582C10.7407 9.79859 10.7816 9.83136 10.8226 9.86413C10.9701 10.0198 11.0602 10.2328 11.0602 10.4458C11.0602 10.6588 10.9701 10.8718 10.8226 11.0275Z" fill="#C8CDD5"/>
</svg>
