<svg width="19" height="17" viewBox="0 0 19 17" fill="none" xmlns="http://www.w3.org/2000/svg">
<path d="M14.9476 3.04924L13.9173 1.50429C13.6679 1.12917 13.3296 0.821618 12.9325 0.609065C12.5353 0.396512 12.0917 0.285569 11.6413 0.286135H8.12217C7.67173 0.285569 7.22815 0.396512 6.83101 0.609065C6.43387 0.821618 6.09552 1.12917 5.84615 1.50429L4.81607 3.04924C3.70203 3.1753 2.67332 3.70681 1.92594 4.54251C1.17856 5.37821 0.764778 6.45967 0.763428 7.58081V12.1399C0.764842 13.3487 1.24563 14.5075 2.10033 15.3622C2.95502 16.2169 4.11383 16.6977 5.32256 16.6991H14.4409C15.6496 16.6977 16.8084 16.2169 17.6631 15.3622C18.5178 14.5075 18.9986 13.3487 19 12.1399V7.58081C18.9987 6.45969 18.5849 5.37826 17.8376 4.54256C17.0903 3.70687 16.0616 3.17534 14.9476 3.04924ZM17.1764 12.1399C17.1756 12.8652 16.8872 13.5605 16.3743 14.0734C15.8615 14.5862 15.1662 14.8746 14.4409 14.8754H5.32256C4.5973 14.8746 3.90198 14.5862 3.38915 14.0734C2.87631 13.5605 2.58786 12.8652 2.58706 12.1399V7.58081C2.58786 6.85555 2.87631 6.16023 3.38915 5.64739C3.90198 5.13456 4.5973 4.8461 5.32256 4.84531C5.47268 4.84534 5.62048 4.80829 5.75283 4.73745C5.88518 4.66661 5.99799 4.56418 6.08123 4.43926L7.3635 2.51586C7.4466 2.3908 7.55938 2.28827 7.69176 2.21741C7.82415 2.14656 7.97202 2.10959 8.12217 2.10981H11.6413C11.7915 2.10959 11.9393 2.14656 12.0717 2.21741C12.2041 2.28827 12.3169 2.3908 12.4 2.51586L13.6822 4.43926C13.7655 4.56418 13.8783 4.66661 14.0106 4.73745C14.143 4.80829 14.2908 4.84534 14.4409 4.84531C15.1662 4.8461 15.8615 5.13456 16.3743 5.64739C16.8872 6.16023 17.1756 6.85555 17.1764 7.58081V12.1399ZM9.88174 5.75713C9.16035 5.75712 8.45517 5.97103 7.85536 6.3718C7.25554 6.77257 6.78805 7.34221 6.51198 8.00868C6.23592 8.67515 6.16368 9.40852 6.30442 10.116C6.44515 10.8236 6.79253 11.4735 7.30262 11.9836C7.81272 12.4937 8.46262 12.841 9.17014 12.9818C9.87766 13.1225 10.611 13.0503 11.2775 12.7742C11.944 12.4981 12.5136 12.0306 12.9144 11.4308C13.3152 10.831 13.5291 10.1258 13.529 9.40444C13.528 8.43743 13.1434 7.51032 12.4596 6.82654C11.7759 6.14276 10.8487 5.75816 9.88174 5.75713ZM9.88174 11.2281C9.52105 11.2281 9.16846 11.1212 8.86855 10.9208C8.56865 10.7204 8.33491 10.4356 8.19688 10.1023C8.05885 9.7691 8.02273 9.40242 8.0931 9.04866C8.16347 8.6949 8.33715 8.36995 8.5922 8.11491C8.84725 7.85986 9.17219 7.68617 9.52595 7.61581C9.87971 7.54544 10.2464 7.58155 10.5796 7.71958C10.9129 7.85761 11.1977 8.09136 11.3981 8.39126C11.5985 8.69116 11.7054 9.04375 11.7054 9.40444C11.7049 9.88794 11.5125 10.3515 11.1707 10.6934C10.8288 11.0353 10.3652 11.2276 9.88174 11.2281ZM16.2645 6.66895C16.2645 6.84929 16.2111 7.02558 16.1109 7.17552C16.0107 7.32547 15.8683 7.44234 15.7017 7.51136C15.5351 7.58037 15.3517 7.59843 15.1748 7.56324C14.998 7.52806 14.8355 7.44122 14.708 7.3137C14.5805 7.18618 14.4936 7.02371 14.4584 6.84683C14.4232 6.66996 14.4413 6.48662 14.5103 6.32001C14.5793 6.1534 14.6962 6.01099 14.8461 5.9108C14.9961 5.81061 15.1724 5.75713 15.3527 5.75713C15.5946 5.75713 15.8265 5.85319 15.9975 6.02419C16.1685 6.19519 16.2645 6.42712 16.2645 6.66895Z" fill="#C9C9C9"/>
</svg>
