<svg width="24" height="22" viewBox="0 0 24 22" fill="none" xmlns="http://www.w3.org/2000/svg">
<path d="M5.03915 16.1968C4.70146 16.057 4.48128 15.7275 4.48128 15.362V12.651H3.57764C2.08283 12.651 0.866699 11.4349 0.866699 9.9401V2.71094C0.866699 1.21613 2.08283 0 3.57764 0H14.4214C15.9162 0 17.1323 1.21613 17.1323 2.71094V9.9401C17.1323 11.4349 15.9162 12.651 14.4214 12.651H9.37376L6.0239 16.0009C5.7655 16.2593 5.3768 16.3367 5.03915 16.1968ZM3.57764 1.80729C3.07937 1.80729 2.67399 2.21267 2.67399 2.71094V9.9401C2.67399 10.4384 3.07937 10.8437 3.57764 10.8437H5.38493C5.88401 10.8437 6.28857 11.2483 6.28857 11.7474V13.1804L8.36045 11.1084C8.52989 10.9389 8.75978 10.8437 8.99942 10.8437H14.4214C14.9197 10.8437 15.325 10.4384 15.325 9.9401V2.71094C15.325 2.21267 14.9197 1.80729 14.4214 1.80729H3.57764Z" fill="#9CA3AE"/>
<path d="M19.0236 21.4228L15.6737 18.0729H12.4334C10.9386 18.0729 9.72243 16.8568 9.72243 15.362C9.72243 14.8629 10.127 14.4583 10.6261 14.4583C11.1252 14.4583 11.5297 14.8629 11.5297 15.362C11.5297 15.8603 11.9351 16.2656 12.4334 16.2656H16.048C16.2876 16.2656 16.5175 16.3608 16.687 16.5303L18.7589 18.6022V17.1693C18.7589 16.6702 19.1634 16.2656 19.6625 16.2656H21.2891C21.7874 16.2656 22.1927 15.8603 22.1927 15.362V8.13281C22.1927 7.63454 21.7874 7.22917 21.2891 7.22917H19.4818C18.9827 7.22917 18.5782 6.8246 18.5782 6.32552C18.5782 5.82644 18.9827 5.42188 19.4818 5.42188H21.2891C22.7839 5.42188 24 6.638 24 8.13281V15.362C24 16.8568 22.7839 18.0729 21.2891 18.0729H20.5662V20.7839C20.5662 21.1493 20.346 21.4789 20.0083 21.6187C19.6713 21.7583 19.2825 21.6818 19.0236 21.4228Z" fill="#9CA3AE"/>
<path d="M5.38492 7.22917C5.88399 7.22917 6.28857 6.82459 6.28857 6.32552C6.28857 5.82645 5.88399 5.42188 5.38492 5.42188C4.88585 5.42188 4.48128 5.82645 4.48128 6.32552C4.48128 6.82459 4.88585 7.22917 5.38492 7.22917Z" fill="#9CA3AE"/>
<path d="M8.99952 7.22917C9.49859 7.22917 9.90316 6.82459 9.90316 6.32552C9.90316 5.82645 9.49859 5.42188 8.99952 5.42188C8.50045 5.42188 8.09587 5.82645 8.09587 6.32552C8.09587 6.82459 8.50045 7.22917 8.99952 7.22917Z" fill="#9CA3AE"/>
<path d="M12.6141 7.22917C13.1132 7.22917 13.5177 6.82459 13.5177 6.32552C13.5177 5.82645 13.1132 5.42188 12.6141 5.42188C12.115 5.42188 11.7104 5.82645 11.7104 6.32552C11.7104 6.82459 12.115 7.22917 12.6141 7.22917Z" fill="#9CA3AE"/>
</svg>
