<svg width="24" height="24" viewBox="0 0 24 24" fill="none" xmlns="http://www.w3.org/2000/svg">
<path d="M4.16866 23.6704L6.25663 21.5825C7.90883 22.6668 9.88047 23.3031 12.0002 23.3031C14.119 23.3031 16.0898 22.6674 17.7415 21.5837L19.8281 23.6704C20.2676 24.1099 20.9796 24.1099 21.419 23.6704C21.8584 23.2314 21.8584 22.5187 21.419 22.0796L19.4893 20.1499C21.349 18.2546 22.5005 15.6619 22.5005 12.8029C22.5005 7.01259 17.7904 2.30264 12.0002 2.30264C6.21013 2.30264 1.50003 7.01259 1.50003 12.8029C1.50003 15.6608 2.65085 18.2528 4.50947 20.1479L2.5778 22.0796C2.13837 22.5186 2.13837 23.2313 2.5778 23.6704C3.01724 24.1099 3.72923 24.1099 4.16866 23.6704ZM10.8752 8.63277C10.8752 8.01018 11.3777 7.50775 12.0002 7.50775C12.6228 7.50775 13.1253 8.01018 13.1253 8.63277V11.5578L16.1553 14.5878C16.5903 15.0304 16.5903 15.7428 16.1553 16.1779C15.7379 16.6095 14.9996 16.627 14.5653 16.1779L11.2052 12.8179C10.9952 12.6079 10.8752 12.3228 10.8752 12.0228V8.63277Z" fill="white"/>
<path d="M22.703 8.26526C23.5205 7.37282 24.0005 6.19522 24.0005 4.94277C24.0005 2.22764 21.7879 0.00759888 19.0654 0.00759888C17.6028 0.00759888 16.2677 0.637461 15.3602 1.68013C18.6754 2.67765 21.3679 5.1152 22.703 8.26526Z" fill="white"/>
<path d="M8.73018 1.65003C7.80016 0.622587 6.46513 0 5.01003 0C2.25005 0 0 2.25004 0 5.01003C0 6.2552 0.472509 7.43257 1.26745 8.33274C2.61005 5.12268 5.34761 2.64013 8.73018 1.65003Z" fill="white"/>
</svg>
