<svg width="24" height="31" viewBox="0 0 24 31" fill="none" xmlns="http://www.w3.org/2000/svg">
<path d="M23.1025 8.64802C23.7338 8.64802 24.1715 8.0098 23.9348 7.42454C23.0943 5.34656 21.0556 3.8767 18.6799 3.8767H17.5816C17.1721 1.71332 15.2753 0 12.9543 0H11.0457C8.72622 0 6.82818 1.71219 6.41839 3.8767H5.32015C2.94439 3.8767 0.905721 5.34656 0.0651927 7.42454C-0.171525 8.0098 0.266185 8.64802 0.89749 8.64802H23.1025ZM11.0457 1.78925H12.9543C14.2604 1.78925 15.3691 2.668 15.7424 3.8767H8.25761C8.63085 2.668 9.73958 1.78925 11.0457 1.78925Z" fill="white"/>
<path d="M3.35513 28.0432C3.45467 29.4413 4.63063 30.5364 6.0322 30.5364H17.9677C19.3693 30.5364 20.5453 29.4413 20.6448 28.0432L21.8986 10.4373H2.10135L3.35513 28.0432ZM14.4464 15.2235C14.4711 14.7301 14.8919 14.3495 15.3846 14.3747C15.8781 14.3994 16.2581 14.8195 16.2334 15.3129L15.7563 24.8555C15.7324 25.3338 15.3371 25.7055 14.8635 25.7055C14.3484 25.7055 13.9438 25.2747 13.9692 24.7662L14.4464 15.2235ZM8.6154 14.3747C9.10821 14.35 9.52893 14.7301 9.55356 15.2235L10.0307 24.7662C10.0561 25.2749 9.65125 25.7055 9.13642 25.7055C8.66287 25.7055 8.26757 25.3338 8.24365 24.8555L7.76652 15.3129C7.74189 14.8195 8.12192 14.3994 8.6154 14.3747Z" fill="white"/>
</svg>
