<svg width="11" height="14" viewBox="0 0 11 14" fill="none" xmlns="http://www.w3.org/2000/svg">
<path d="M9.778 3.66675C9.61592 3.66675 9.46048 3.73113 9.34587 3.84574C9.23127 3.96034 9.16688 4.11578 9.16688 4.27786V11.1168C9.14935 11.4258 9.01042 11.7154 8.78035 11.9225C8.55028 12.1295 8.24771 12.2373 7.93855 12.2223H3.06188C2.75272 12.2373 2.45015 12.1295 2.22008 11.9225C1.99001 11.7154 1.85108 11.4258 1.83355 11.1168V4.27786C1.83355 4.11578 1.76917 3.96034 1.65456 3.84574C1.53995 3.73113 1.38452 3.66675 1.22244 3.66675C1.06036 3.66675 0.904924 3.73113 0.790319 3.84574C0.675713 3.96034 0.611328 4.11578 0.611328 4.27786V11.1168C0.628772 11.7501 0.896462 12.3506 1.35577 12.7869C1.81508 13.2232 2.42857 13.4596 3.06188 13.4445H7.93855C8.57186 13.4596 9.18535 13.2232 9.64466 12.7869C10.104 12.3506 10.3717 11.7501 10.3891 11.1168V4.27786C10.3891 4.11578 10.3247 3.96034 10.2101 3.84574C10.0955 3.73113 9.94007 3.66675 9.778 3.66675Z" fill="#EF5050"/>
<path d="M10.3889 1.83333H7.94444V0.611111C7.94444 0.449034 7.88006 0.293596 7.76545 0.17899C7.65085 0.0643847 7.49541 0 7.33333 0H3.66667C3.50459 0 3.34915 0.0643847 3.23455 0.17899C3.11994 0.293596 3.05556 0.449034 3.05556 0.611111V1.83333H0.611111C0.449034 1.83333 0.293596 1.89772 0.17899 2.01232C0.0643847 2.12693 0 2.28237 0 2.44444C0 2.60652 0.0643847 2.76196 0.17899 2.87657C0.293596 2.99117 0.449034 3.05556 0.611111 3.05556H10.3889C10.551 3.05556 10.7064 2.99117 10.821 2.87657C10.9356 2.76196 11 2.60652 11 2.44444C11 2.28237 10.9356 2.12693 10.821 2.01232C10.7064 1.89772 10.551 1.83333 10.3889 1.83333ZM4.27778 1.83333V1.22222H6.72222V1.83333H4.27778Z" fill="#EF5050"/>
<path d="M4.88921 9.7778V5.50003C4.88921 5.33795 4.82483 5.18251 4.71022 5.06791C4.59562 4.9533 4.44018 4.88892 4.2781 4.88892C4.11603 4.88892 3.96059 4.9533 3.84598 5.06791C3.73138 5.18251 3.66699 5.33795 3.66699 5.50003V9.7778C3.66699 9.93988 3.73138 10.0953 3.84598 10.2099C3.96059 10.3245 4.11603 10.3889 4.2781 10.3889C4.44018 10.3889 4.59562 10.3245 4.71022 10.2099C4.82483 10.0953 4.88921 9.93988 4.88921 9.7778Z" fill="#EF5050"/>
<path d="M7.33306 9.7778V5.50003C7.33306 5.33795 7.26868 5.18251 7.15407 5.06791C7.03947 4.9533 6.88403 4.88892 6.72195 4.88892C6.55987 4.88892 6.40444 4.9533 6.28983 5.06791C6.17522 5.18251 6.11084 5.33795 6.11084 5.50003V9.7778C6.11084 9.93988 6.17522 10.0953 6.28983 10.2099C6.40444 10.3245 6.55987 10.3889 6.72195 10.3889C6.88403 10.3889 7.03947 10.3245 7.15407 10.2099C7.26868 10.0953 7.33306 9.93988 7.33306 9.7778Z" fill="#EF5050"/>
</svg>
