<svg width="62" height="62" viewBox="0 0 62 62" fill="none" xmlns="http://www.w3.org/2000/svg">
<path d="M57.724 0H23.5171C21.1556 0 19.2412 1.91437 19.2412 4.27586V23.5172C19.2412 25.8787 21.1556 27.7931 23.5171 27.7931H57.724C60.0855 27.7931 61.9998 25.8787 61.9998 23.5172V4.27586C61.9998 1.91437 60.0855 0 57.724 0Z" fill="#B0D3F0"/>
<path d="M52.0373 21.358C51.9363 22.8659 50.6837 24.0374 49.1724 24.0374C47.6612 24.0374 46.4086 22.8659 46.3076 21.358C47.4505 20.5707 47.842 19.0637 47.2269 17.8197H51.118C50.5029 19.0637 50.8944 20.5707 52.0373 21.358Z" fill="#F9C795"/>
<path d="M57.7241 24.5862H40.6206C40.9604 22.6763 42.6473 21.303 44.5865 21.3579H46.3075C46.4085 22.8658 47.661 24.0373 49.1723 24.0373C50.6836 24.0373 51.9362 22.8658 52.0372 21.3579H53.7582C55.6973 21.303 57.3843 22.6763 57.7241 24.5862Z" fill="#2980BA"/>
<path d="M24.5862 7.48278H23.5172C22.9268 7.48278 22.4482 7.00419 22.4482 6.41381C22.4482 5.82344 22.9268 5.34485 23.5172 5.34485H24.5862C25.1765 5.34485 25.6551 5.82344 25.6551 6.41381C25.6551 7.00419 25.1765 7.48278 24.5862 7.48278Z" fill="#3F5C6C"/>
<path d="M37.4137 7.48278H28.8619C28.2716 7.48278 27.793 7.00419 27.793 6.41381C27.793 5.82344 28.2716 5.34485 28.8619 5.34485H37.4137C38.004 5.34485 38.4826 5.82344 38.4826 6.41381C38.4826 7.00419 38.004 7.48278 37.4137 7.48278Z" fill="#3F5C6C"/>
<path d="M24.5862 11.7587H23.5172C22.9268 11.7587 22.4482 11.2801 22.4482 10.6897C22.4482 10.0993 22.9268 9.62073 23.5172 9.62073H24.5862C25.1765 9.62073 25.6551 10.0993 25.6551 10.6897C25.6551 11.2801 25.1765 11.7587 24.5862 11.7587Z" fill="#3F5C6C"/>
<path d="M37.4137 11.7587H28.8619C28.2716 11.7587 27.793 11.2801 27.793 10.6897C27.793 10.0993 28.2716 9.62073 28.8619 9.62073H37.4137C38.004 9.62073 38.4826 10.0993 38.4826 10.6897C38.4826 11.2801 38.004 11.7587 37.4137 11.7587Z" fill="#3F5C6C"/>
<path d="M24.5862 16.0344H23.5172C22.9268 16.0344 22.4482 15.5558 22.4482 14.9654C22.4482 14.3751 22.9268 13.8965 23.5172 13.8965H24.5862C25.1765 13.8965 25.6551 14.3751 25.6551 14.9654C25.6551 15.5558 25.1765 16.0344 24.5862 16.0344Z" fill="#3F5C6C"/>
<path d="M37.4137 16.0344H28.8619C28.2716 16.0344 27.793 15.5558 27.793 14.9654C27.793 14.3751 28.2716 13.8965 28.8619 13.8965H37.4137C38.004 13.8965 38.4826 14.3751 38.4826 14.9654C38.4826 15.5558 38.004 16.0344 37.4137 16.0344Z" fill="#3F5C6C"/>
<path d="M42.7589 36.3448H44.8968C46.0761 36.3413 47.0312 35.3862 47.0347 34.2069C47.026 33.0298 46.0739 32.0777 44.8968 32.069H41.6899C41.5062 32.0692 41.3258 32.1171 41.1661 32.2079H8.0068C7.84715 32.1171 7.66668 32.0692 7.48301 32.069H4.27611C3.099 32.0777 2.14691 33.0298 2.13818 34.2069C2.14171 35.3862 3.09683 36.3413 4.27611 36.3448H42.7589Z" fill="#35495E"/>
<path d="M42.7589 36.3448L38.4681 25.1891C37.833 23.5379 36.2467 22.4484 34.4776 22.4482H14.6953C12.9263 22.4484 11.34 23.5379 10.7049 25.1891L6.41406 36.3448H42.7589Z" fill="#B0D3F0"/>
<path d="M27.4727 36.3448H6.41406L10.7006 25.1848C11.3413 23.5354 12.929 22.4486 14.6985 22.4482H15.7568C17.1999 25.9438 20.7703 32.8493 27.4727 36.3448Z" fill="#90BAE1"/>
<path d="M47.569 39.3379L44.4144 36.8141C44.2823 36.7118 44.1388 36.625 43.9869 36.5554L39.4651 24.8053C38.6641 22.7472 36.6858 21.3883 34.4773 21.3793H14.6951C12.4877 21.3876 10.5096 22.7439 9.70621 24.8L5.18769 36.5586C5.03575 36.6282 4.89229 36.715 4.7601 36.8173L1.60345 39.3379C0.590069 40.1492 0.000161959 41.377 0 42.6752V50.2413H49.1724V42.6752C49.1723 41.377 48.5823 40.1492 47.569 39.3379ZM11.702 25.5728C12.183 24.3381 13.37 23.5229 14.6951 23.5172H34.4773C35.8025 23.5229 36.9894 24.3381 37.4705 25.5728L41.6138 36.3448H7.55866L11.702 25.5728Z" fill="#C03A2B"/>
<path d="M3.20703 54.5172H11.7588V59.862C11.7588 61.0428 10.8016 62 9.62082 62H5.34496C4.16422 62 3.20703 61.0428 3.20703 59.862V54.5172Z" fill="#35495E"/>
<path d="M37.4141 54.5172H45.9658V59.862C45.9658 61.0428 45.0086 62 43.8279 62H39.552C38.3712 62 37.4141 61.0428 37.4141 59.862V54.5172Z" fill="#35495E"/>
<path d="M0 50.2415H49.1724V52.3794C49.1724 54.1505 47.7366 55.5863 45.9655 55.5863H3.2069C1.43578 55.5863 0 54.1505 0 52.3794V50.2415Z" fill="#802F34"/>
<path d="M9.62071 41.6897H5.34484C4.75447 41.6897 4.27588 42.1683 4.27588 42.7587V44.8966C4.27588 45.487 4.75447 45.9656 5.34484 45.9656H9.62071C10.2111 45.9656 10.6897 45.487 10.6897 44.8966V42.7587C10.6897 42.1683 10.2111 41.6897 9.62071 41.6897Z" fill="#F3D55B"/>
<path d="M32.0687 41.6897H17.1031C16.5128 41.6897 16.0342 42.1683 16.0342 42.7587V44.8966C16.0342 45.487 16.5128 45.9656 17.1031 45.9656H32.0687C32.659 45.9656 33.1376 45.487 33.1376 44.8966V42.7587C33.1376 42.1683 32.659 41.6897 32.0687 41.6897Z" fill="#2C2F38"/>
<path d="M43.8277 41.6897H39.5519C38.9615 41.6897 38.4829 42.1683 38.4829 42.7587V44.8966C38.4829 45.487 38.9615 45.9656 39.5519 45.9656H43.8277C44.4181 45.9656 44.8967 45.487 44.8967 44.8966V42.7587C44.8967 42.1683 44.4181 41.6897 43.8277 41.6897Z" fill="#F3D55B"/>
<path d="M19.2412 41.6897H21.3791V45.9656H19.2412V41.6897Z" fill="#D1D4D1"/>
<path d="M23.5171 41.6897H25.655V45.9656H23.5171V41.6897Z" fill="#D1D4D1"/>
<path d="M27.793 41.6897H29.9309V45.9656H27.793V41.6897Z" fill="#D1D4D1"/>
<path d="M17.1035 50.2415H32.069V55.5863H17.1035V50.2415Z" fill="#BDC3C7"/>
<path d="M43.4448 7.39514V11.2146C42.5592 11.2146 41.8413 11.9324 41.8413 12.818C41.8413 13.7036 42.5592 14.4215 43.4448 14.4215C43.5525 14.4216 43.6599 14.4108 43.7654 14.3894C44.6006 16.654 46.7586 18.1582 49.1723 18.1582C51.586 18.1582 53.7439 16.654 54.5791 14.3894C54.6846 14.4108 54.7921 14.4216 54.8998 14.4215C55.7854 14.4215 56.5032 13.7036 56.5032 12.818C56.5032 11.9324 55.7854 11.2146 54.8998 11.2146V7.39514H43.4448Z" fill="#FDD7AD"/>
<path d="M54.8998 11.2146C54.8998 11.2146 56.6187 6.94832 53.7549 5.34488C51.2279 3.9317 45.1326 5.84301 42.5532 4.11236C42.3888 3.98887 42.1681 3.97066 41.9857 4.06553C41.8032 4.1604 41.6914 4.35152 41.698 4.55705C41.7707 6.21288 42.2603 8.8917 44.5842 9.61539C46.0574 10.2 47.6978 10.2019 49.1722 9.62074C51.2343 8.68005 54.1622 8.3305 54.8998 11.2146Z" fill="#A56A43"/>
</svg>
