<svg width="22" height="22" viewBox="0 0 22 22" fill="none" xmlns="http://www.w3.org/2000/svg">
<path d="M21.9087 14.6667C21.9087 14.3 21.6349 14.025 21.1784 14.025C20.9046 14.025 20.5394 14.1167 20.1743 14.3C19.7178 13.3833 18.9876 12.5583 18.4398 12.2833C18.2573 12.1 17.0705 11.9167 15.9751 11.9167C14.8797 11.9167 13.6929 12.1 13.4191 12.2833C12.8714 12.5583 12.1411 13.3833 11.6846 14.3C11.3195 14.1167 10.9544 14.025 10.6805 14.025C10.4979 14.025 10.3154 14.1167 10.2241 14.1167C10.1328 14.3 10.0415 14.4833 10.0415 14.6667C10.0415 15.4 10.5892 15.8583 10.6805 15.95C10.7718 15.95 10.7718 16.0417 10.8631 16.0417C10.7718 16.225 10.7718 16.4083 10.6805 16.5C12.0498 16.5917 13.6929 16.8667 13.6929 17.875C13.6929 18.15 13.5104 18.3333 13.2365 18.3333C12.9627 18.3333 12.7801 18.15 12.7801 17.875C12.6888 17.6917 11.5934 17.5083 10.4979 17.4167C10.4979 17.6 10.4979 17.6917 10.4979 17.875C10.4979 18.5167 10.5892 19.7083 10.9544 20.35V21.0833C10.9544 21.6333 11.3195 22 11.8672 22H12.7801C13.3278 22 13.6929 21.6333 13.6929 21.0833V20.8083C14.2407 20.9917 15.0622 21.0833 15.9751 21.0833C16.888 21.0833 17.7095 20.9 18.2573 20.8083V21.0833C18.2573 21.6333 18.6224 22 19.1701 22H20.083C20.6307 22 20.9959 21.6333 20.9959 21.0833V20.35C21.361 19.7083 21.4523 18.6083 21.4523 17.875C21.4523 17.7833 21.4523 17.6 21.4523 17.4167C20.3568 17.5083 19.3527 17.6917 19.1701 17.875C19.1701 18.15 18.9876 18.3333 18.7137 18.3333C18.4398 18.3333 18.2573 18.15 18.2573 17.875C18.2573 16.8667 19.9004 16.5917 21.2697 16.5C21.2697 16.3167 21.1784 16.1333 21.0871 16.0417C21.1784 16.0417 21.1784 16.0417 21.2697 15.95C21.361 15.8583 21.9087 15.4 21.9087 14.6667ZM16.888 18.3333H15.0622C14.7884 18.3333 14.6058 18.15 14.6058 17.875C14.6058 17.6 14.7884 17.4167 15.0622 17.4167H16.888C17.1618 17.4167 17.3444 17.6 17.3444 17.875C17.3444 18.15 17.1618 18.3333 16.888 18.3333ZM19.3527 15.3083C19.1701 15.3083 18.9876 15.3083 18.805 15.4H18.7137C18.5311 15.4 18.3485 15.4 18.166 15.4917C18.0747 15.4917 18.0747 15.4917 17.9834 15.4917C17.8008 15.4917 17.7095 15.4917 17.527 15.4917C17.4357 15.4917 17.4357 15.4917 17.3444 15.4917C17.2531 15.4917 17.0705 15.4917 16.9793 15.4917C16.888 15.4917 16.888 15.4917 16.7967 15.4917C16.7054 15.4917 16.6141 15.4917 16.5228 15.4917C16.4315 15.4917 16.4315 15.4917 16.3402 15.4917C16.249 15.4917 16.0664 15.4917 15.9751 15.4917C15.8838 15.4917 15.7925 15.4917 15.61 15.4917C15.61 15.4917 15.5187 15.4917 15.4274 15.4917C15.3361 15.4917 15.2448 15.4917 15.1535 15.4917C15.0622 15.4917 15.0622 15.4917 14.971 15.4917C14.8797 15.4917 14.6971 15.4917 14.6058 15.4917C14.5145 15.4917 14.5145 15.4917 14.4232 15.4917C14.2407 15.4917 14.1494 15.4917 13.9668 15.4917C13.8755 15.4917 13.8755 15.4917 13.7842 15.4917C13.6017 15.4917 13.4191 15.4917 13.2365 15.4H13.1452C12.8714 15.4 12.5062 15.3083 12.2324 15.3083C12.5062 14.3 13.3278 13.2917 13.6929 13.2C13.8755 13.1083 14.8797 12.925 15.8838 12.925C16.888 12.925 17.8921 13.1083 18.0747 13.2C18.4398 13.3833 19.2614 14.3 19.5353 15.3083C19.5353 15.3083 19.444 15.3083 19.3527 15.3083ZM0 14.2083C0 15.4917 1.00415 16.5 2.28216 16.5H9.03734C9.3112 16.5 9.49378 16.3167 9.49378 16.0417C9.49378 15.95 9.40249 15.7667 9.40249 15.7667C9.21992 15.4 9.12863 15.0333 9.12863 14.6667H2.28216C2.0083 14.6667 1.82573 14.4833 1.82573 14.2083C1.82573 13.0167 2.55602 12.1 3.74274 11.825L5.11203 11.4583L5.20332 11.1833C4.83817 10.8167 4.6556 10.3583 4.56432 9.80833C4.29046 9.71667 4.10788 9.44167 4.0166 9.16667L3.83402 8.34167C3.83402 8.06667 3.83402 7.88333 4.0166 7.7C4.10788 7.60833 4.10788 7.60833 4.19917 7.51667C4.19917 7.24167 4.10788 6.96667 4.10788 6.875C4.10788 6.14167 4.29046 5.13333 6.20747 5.04167C6.93776 4.58333 7.57676 4.58333 7.85062 4.58333C8.85477 4.58333 9.3112 5.04167 9.58506 5.40833C10.1328 6.14167 9.76763 6.69167 9.49378 6.96667L9.40249 7.05833V7.51667C9.49378 7.51667 9.49378 7.60833 9.58506 7.7C9.76764 7.88333 9.85892 8.15833 9.76763 8.34167V9.16667C9.76763 9.44167 9.58506 9.71667 9.3112 9.80833C9.21992 10.3583 8.94606 10.8167 8.58091 11.1833L8.6722 11.4583L10.0415 11.825C10.6805 12.0083 11.2282 12.375 11.5021 12.925C11.9585 12.2833 12.5062 11.7333 12.9627 11.4583C13.5104 11.1833 14.971 11 15.9751 11C16.9793 11 18.3485 11.1833 18.9876 11.4583C19.444 11.7333 19.9917 12.2833 20.5394 12.925C20.6307 13.1083 20.8133 13.1083 20.9959 13.1083C21.1784 13.1083 21.2697 13.1083 21.4523 13.1083C21.5436 13.1083 21.7261 13.1083 21.8174 13.0167C21.9087 12.925 22 12.8333 22 12.65V3.66667H0V14.2083ZM17.8008 5.5H19.6266C19.9004 5.5 20.083 5.68333 20.083 5.95833C20.083 6.23333 19.9004 6.41667 19.6266 6.41667H17.8008C17.527 6.41667 17.3444 6.23333 17.3444 5.95833C17.3444 5.68333 17.527 5.5 17.8008 5.5ZM13.2365 5.5H15.9751C16.249 5.5 16.4315 5.68333 16.4315 5.95833C16.4315 6.23333 16.249 6.41667 15.9751 6.41667H13.2365C12.9627 6.41667 12.7801 6.23333 12.7801 5.95833C12.7801 5.68333 12.9627 5.5 13.2365 5.5ZM13.2365 8.25H19.6266C19.9004 8.25 20.083 8.43333 20.083 8.70833C20.083 8.98333 19.9004 9.16667 19.6266 9.16667H13.2365C12.9627 9.16667 12.7801 8.98333 12.7801 8.70833C12.7801 8.43333 12.9627 8.25 13.2365 8.25ZM19.6266 0H2.28216C1.00415 0 0 1.00833 0 2.29167V2.75H21.9087V2.29167C21.9087 1.00833 20.9046 0 19.6266 0Z" fill="#EF5050"/>
</svg>
