<svg width="22" height="22" viewBox="0 0 22 22" fill="none" xmlns="http://www.w3.org/2000/svg">
<path d="M16.3281 1.71875H15.4688V0.859375C15.4688 0.384742 15.084 0 14.6094 0C14.1347 0 13.75 0.384742 13.75 0.859375V1.71875H6.875V0.859375C6.875 0.384742 6.49026 0 6.01562 0C5.54099 0 5.15625 0.384742 5.15625 0.859375V1.71875H4.29688C1.92758 1.71875 0 3.64633 0 6.01562V16.3281C0 18.6974 1.92758 20.625 4.29688 20.625H8.45208C8.92667 20.625 9.31146 20.2403 9.31146 19.7656C9.31146 19.291 8.92667 18.9062 8.45208 18.9062H4.29688C2.8753 18.9062 1.71875 17.7497 1.71875 16.3281V8.59375H19.7656C20.2403 8.59375 20.625 8.20901 20.625 7.73438V6.01562C20.625 3.64633 18.6975 1.71875 16.3281 1.71875ZM18.9062 6.875H1.71875V6.01562C1.71875 4.59405 2.8753 3.4375 4.29688 3.4375H5.15625V4.29688C5.15625 4.77151 5.54099 5.15625 6.01562 5.15625C6.49026 5.15625 6.875 4.77151 6.875 4.29688V3.4375H13.75V4.29688C13.75 4.77151 14.1347 5.15625 14.6094 5.15625C15.084 5.15625 15.4688 4.77151 15.4688 4.29688V3.4375H16.3281C17.7497 3.4375 18.9062 4.59405 18.9062 6.01562V6.875Z" fill="#9CA3AE"/>
<path d="M4.29688 12.0312C4.77149 12.0312 5.15625 11.6465 5.15625 11.1719C5.15625 10.6973 4.77149 10.3125 4.29688 10.3125C3.82226 10.3125 3.4375 10.6973 3.4375 11.1719C3.4375 11.6465 3.82226 12.0312 4.29688 12.0312Z" fill="#9CA3AE"/>
<path d="M7.73438 12.0312C8.20899 12.0312 8.59375 11.6465 8.59375 11.1719C8.59375 10.6973 8.20899 10.3125 7.73438 10.3125C7.25976 10.3125 6.875 10.6973 6.875 11.1719C6.875 11.6465 7.25976 12.0312 7.73438 12.0312Z" fill="#9CA3AE"/>
<path d="M4.29688 15.4688C4.77149 15.4688 5.15625 15.084 5.15625 14.6094C5.15625 14.1348 4.77149 13.75 4.29688 13.75C3.82226 13.75 3.4375 14.1348 3.4375 14.6094C3.4375 15.084 3.82226 15.4688 4.29688 15.4688Z" fill="#9CA3AE"/>
<path d="M7.73438 15.4688C8.20899 15.4688 8.59375 15.084 8.59375 14.6094C8.59375 14.1348 8.20899 13.75 7.73438 13.75C7.25976 13.75 6.875 14.1348 6.875 14.6094C6.875 15.084 7.25976 15.4688 7.73438 15.4688Z" fill="#9CA3AE"/>
<path d="M15.9844 9.96875C12.6674 9.96875 9.96875 12.6674 9.96875 15.9844C9.96875 19.3014 12.6674 22 15.9844 22C19.3014 22 22 19.3014 22 15.9844C22 12.6674 19.3014 9.96875 15.9844 9.96875ZM15.9844 20.2812C13.615 20.2812 11.6875 18.3537 11.6875 15.9844C11.6875 13.6151 13.615 11.6875 15.9844 11.6875C18.3537 11.6875 20.2812 13.6151 20.2812 15.9844C20.2812 18.3537 18.3537 20.2812 15.9844 20.2812Z" fill="#9CA3AE"/>
<path d="M17.7031 15.125H16.8438V14.2656C16.8438 13.791 16.459 13.4062 15.9844 13.4062C15.5097 13.4062 15.125 13.791 15.125 14.2656V15.9844C15.125 16.459 15.5097 16.8438 15.9844 16.8438H17.7031C18.1778 16.8438 18.5625 16.459 18.5625 15.9844C18.5625 15.5097 18.1778 15.125 17.7031 15.125Z" fill="#9CA3AE"/>
</svg>
