<svg width="46" height="46" viewBox="0 0 46 46" fill="none" xmlns="http://www.w3.org/2000/svg">
<g filter="url(#filter0_d_27_23)">
<path d="M28.3281 9.71875H27.4688V8.85938C27.4688 8.38474 27.084 8 26.6094 8C26.1347 8 25.75 8.38474 25.75 8.85938V9.71875H18.875V8.85938C18.875 8.38474 18.4903 8 18.0156 8C17.541 8 17.1562 8.38474 17.1562 8.85938V9.71875H16.2969C13.9276 9.71875 12 11.6463 12 14.0156V24.3281C12 26.6974 13.9276 28.625 16.2969 28.625H20.4521C20.9267 28.625 21.3115 28.2403 21.3115 27.7656C21.3115 27.291 20.9267 26.9062 20.4521 26.9062H16.2969C14.8753 26.9062 13.7188 25.7497 13.7188 24.3281V16.5938H31.7656C32.2403 16.5938 32.625 16.209 32.625 15.7344V14.0156C32.625 11.6463 30.6975 9.71875 28.3281 9.71875ZM30.9062 14.875H13.7188V14.0156C13.7188 12.594 14.8753 11.4375 16.2969 11.4375H17.1562V12.2969C17.1562 12.7715 17.541 13.1562 18.0156 13.1562C18.4903 13.1562 18.875 12.7715 18.875 12.2969V11.4375H25.75V12.2969C25.75 12.7715 26.1347 13.1562 26.6094 13.1562C27.084 13.1562 27.4688 12.7715 27.4688 12.2969V11.4375H28.3281C29.7497 11.4375 30.9062 12.594 30.9062 14.0156V14.875Z" fill="#EF5050"/>
<path d="M16.2969 20.0312C16.7715 20.0312 17.1562 19.6465 17.1562 19.1719C17.1562 18.6973 16.7715 18.3125 16.2969 18.3125C15.8223 18.3125 15.4375 18.6973 15.4375 19.1719C15.4375 19.6465 15.8223 20.0312 16.2969 20.0312Z" fill="#EF5050"/>
<path d="M19.7344 20.0312C20.209 20.0312 20.5938 19.6465 20.5938 19.1719C20.5938 18.6973 20.209 18.3125 19.7344 18.3125C19.2598 18.3125 18.875 18.6973 18.875 19.1719C18.875 19.6465 19.2598 20.0312 19.7344 20.0312Z" fill="#EF5050"/>
<path d="M16.2969 23.4688C16.7715 23.4688 17.1562 23.084 17.1562 22.6094C17.1562 22.1348 16.7715 21.75 16.2969 21.75C15.8223 21.75 15.4375 22.1348 15.4375 22.6094C15.4375 23.084 15.8223 23.4688 16.2969 23.4688Z" fill="#EF5050"/>
<path d="M19.7344 23.4688C20.209 23.4688 20.5938 23.084 20.5938 22.6094C20.5938 22.1348 20.209 21.75 19.7344 21.75C19.2598 21.75 18.875 22.1348 18.875 22.6094C18.875 23.084 19.2598 23.4688 19.7344 23.4688Z" fill="#EF5050"/>
<path d="M27.9844 17.9688C24.6674 17.9688 21.9688 20.6674 21.9688 23.9844C21.9688 27.3014 24.6674 30 27.9844 30C31.3014 30 34 27.3014 34 23.9844C34 20.6674 31.3014 17.9688 27.9844 17.9688ZM27.9844 28.2812C25.615 28.2812 23.6875 26.3537 23.6875 23.9844C23.6875 21.6151 25.615 19.6875 27.9844 19.6875C30.3537 19.6875 32.2812 21.6151 32.2812 23.9844C32.2812 26.3537 30.3537 28.2812 27.9844 28.2812Z" fill="#EF5050"/>
<path d="M29.7031 23.125H28.8438V22.2656C28.8438 21.791 28.459 21.4062 27.9844 21.4062C27.5097 21.4062 27.125 21.791 27.125 22.2656V23.9844C27.125 24.459 27.5097 24.8438 27.9844 24.8438H29.7031C30.1778 24.8438 30.5625 24.459 30.5625 23.9844C30.5625 23.5097 30.1778 23.125 29.7031 23.125Z" fill="#EF5050"/>
</g>

</svg>
