<svg width="20" height="17" viewBox="0 0 20 17" fill="none" xmlns="http://www.w3.org/2000/svg">
<path fill-rule="evenodd" clip-rule="evenodd" d="M7 2C5.34315 2 4 3.34315 4 5C4 6.6569 5.34315 8 7 8C8.6569 8 10 6.6569 10 5C10 3.34315 8.6569 2 7 2ZM2 5C2 2.23858 4.23858 0 7 0C9.7614 0 12 2.23858 12 5C12 7.7614 9.7614 10 7 10C4.23858 10 2 7.7614 2 5ZM12 1C12 0.44772 12.4477 0 13 0C15.7614 0 18 2.23858 18 5C18 7.7614 15.7614 10 13 10C12.4477 10 12 9.5523 12 9C12 8.4477 12.4477 8 13 8C14.6569 8 16 6.6569 16 5C16 3.34315 14.6569 2 13 2C12.4477 2 12 1.55228 12 1ZM2.20266 12.3395C3.47422 11.4918 5.17326 11 7 11C8.8267 11 10.5258 11.4918 11.7973 12.3395C13.0619 13.1826 14 14.457 14 16C14 16.5523 13.5523 17 13 17C12.4477 17 12 16.5523 12 16C12 15.3338 11.5949 14.6083 10.6879 14.0036C9.7879 13.4036 8.487 13 7 13C5.51303 13 4.21207 13.4036 3.31206 14.0036C2.40506 14.6083 2 15.3338 2 16C2 16.5523 1.55228 17 1 17C0.44772 17 0 16.5523 0 16C0 14.457 0.93809 13.1826 2.20266 12.3395ZM14.0267 11.9982C14.1533 11.4606 14.6918 11.1275 15.2294 11.2542C17.7332 11.8442 20 13.5593 20 15.9999C20 16.5522 19.5523 16.9999 19 16.9999C18.4477 16.9999 18 16.5522 18 15.9999C18 14.9573 16.9276 13.7091 14.7706 13.2009C14.2331 13.0742 13.9 12.5358 14.0267 11.9982Z" fill="#414751"/>
</svg>
