<svg width="40" height="63" viewBox="0 0 40 63" fill="none" xmlns="http://www.w3.org/2000/svg">
<path d="M19.9046 0C17.3021 0 15.1924 2.10975 15.1924 4.71223V9.67548H24.6168V4.71223C24.6168 2.10975 22.5071 0 19.9046 0ZM19.9346 6.17552C19.1095 6.17552 18.4405 5.50654 18.4405 4.68139C18.4405 3.85612 19.1095 3.18726 19.9346 3.18726C20.7599 3.18726 21.4289 3.85624 21.4289 4.68139C21.4289 5.50654 20.7599 6.17552 19.9346 6.17552Z" fill="#FECA57"/>
<path d="M21.1655 0.171957C20.764 0.0607051 20.3415 0 19.9046 0C17.3021 0 15.1924 2.10975 15.1924 4.71223V9.67548H17.7142V4.71223C17.7142 2.54668 19.1755 0.723565 21.1655 0.171957Z" fill="#F4B537"/>
<path d="M38.2889 11.9053H33.3888H6.61098H1.711C0.769951 11.9053 0 12.6752 0 13.6162V60.9523C0 61.8933 0.769951 62.6632 1.711 62.6632H38.289C39.2299 62.6632 40 61.8932 40 60.9523V13.6163C39.9998 12.6752 39.2298 11.9053 38.2889 11.9053Z" fill="#E4EAF8"/>
<path d="M2.52195 60.9524V13.6163C2.52195 12.6752 3.2919 11.9054 4.23283 11.9054H1.711C0.769951 11.9054 0 12.6753 0 13.6163V60.9524C0 61.8935 0.769951 62.6633 1.711 62.6633H4.23283C3.29178 62.6633 2.52195 61.8933 2.52195 60.9524Z" fill="#D8DCE5"/>
<path d="M31.6779 22.7185H8.32184C7.38079 22.7185 6.61084 23.4885 6.61084 24.4295V54.7353C6.61084 55.6763 7.38079 56.4463 8.32184 56.4463H31.6778C32.6188 56.4463 33.3888 55.6763 33.3888 54.7353V24.4294C33.3888 23.4885 32.6188 22.7185 31.6779 22.7185Z" fill="#54A0FF"/>
<path d="M8.6649 54.7353V24.4294C8.6649 23.4883 9.43485 22.7184 10.3759 22.7184H8.32221C7.38116 22.7184 6.61133 23.4883 6.61133 24.4294V54.7352C6.61133 55.6762 7.38128 56.4461 8.32221 56.4461H10.3759C9.43485 56.4462 8.6649 55.6762 8.6649 54.7353Z" fill="#338DEF"/>
<path d="M19.9346 25.3556C16.1062 25.3556 13.0029 28.459 13.0029 32.2874V35.0305C13.4662 34.601 14.1252 34.3676 14.7686 34.4535V34.1081C14.7686 33.8335 15.0031 33.6166 15.275 33.6373C17.9549 33.8298 20.6824 32.9782 22.7446 31.6311C22.9371 31.5053 23.1921 31.5366 23.3485 31.7048C25.1115 33.5999 25.1009 33.5265 25.1009 33.774V34.4523C25.8061 34.3466 26.4316 34.5645 26.8662 34.9687V32.2876C26.8662 28.459 23.7629 25.3556 19.9346 25.3556Z" fill="#576574"/>
<path d="M14.8634 32.2874C14.8634 28.7747 17.4766 25.8743 20.8649 25.4196C20.5603 25.3787 20.2502 25.3557 19.9346 25.3557C16.1062 25.3557 13.0029 28.459 13.0029 32.2875V35.0306C13.4662 34.6011 14.1252 34.3677 14.7686 34.4538V34.1084C14.7686 34.0018 14.8044 33.9041 14.8635 33.8254V32.2874H14.8634Z" fill="#3E4B5A"/>
<path d="M25.009 34.1766V37.9737C25.009 38.0148 25.0068 38.0555 25.0059 38.0966C26.3496 38.3 27.402 37.3292 27.402 36.1368C27.402 34.942 26.3487 33.9757 25.009 34.1766Z" fill="#F2BB88"/>
<path d="M14.8604 37.9737V34.1781C13.6906 34.0219 12.4673 34.9196 12.4673 36.1368C12.4673 37.3276 13.5174 38.3003 14.8633 38.0966C14.8623 38.0556 14.8604 38.0147 14.8604 37.9737Z" fill="#F2BB88"/>
<path d="M26.6902 34.6191C26.2607 34.2628 25.6699 34.0776 25.009 34.1767V37.9738C25.009 38.0149 25.007 38.0555 25.0059 38.0967C25.6687 38.197 26.2604 38.0112 26.6901 37.6545L26.6902 34.6191Z" fill="#E3A76F"/>
<path d="M14.8604 37.6547C14.4187 37.288 14.1484 36.7405 14.1484 36.1368C14.1484 35.5492 14.434 35.0366 14.8604 34.6806V34.1782C13.6906 34.022 12.4673 34.9197 12.4673 36.1369C12.4673 37.3278 13.5173 38.3004 14.8633 38.0967C14.8623 38.0557 14.8604 38.015 14.8604 37.974V37.6547Z" fill="#E3A76F"/>
<path d="M20.0086 42.9743C18.8887 42.9743 17.9046 42.6668 17.0996 42.1525V44.873L19.9961 48.4482L22.8925 44.873V42.0759C22.072 42.6419 21.0786 42.9743 20.0086 42.9743Z" fill="#F2BB88"/>
<path d="M18.9545 42.8785C18.264 42.7503 17.6411 42.4986 17.0996 42.1526V44.8731L18.9545 47.1627V42.8785Z" fill="#E3A76F"/>
<path d="M30.5551 47.6568L22.8927 44.6893L19.9962 48.2646L17.0997 44.6893L9.44538 47.6568C9.44538 47.6568 6.61133 48.8219 6.61133 52.0526V54.9875C6.61145 55.9285 7.38128 56.6983 8.32221 56.6983H31.6781C32.6192 56.6983 33.389 55.9283 33.389 54.9873V52.0525C33.3891 48.8219 30.5551 47.6568 30.5551 47.6568Z" fill="#E4EAF8"/>
<path d="M8.32221 56.6985H8.46626V51.218C8.46626 49.0014 9.80018 47.7573 10.6377 47.1946L9.44537 47.6568C9.44537 47.6568 6.61133 48.822 6.61133 52.0527V54.9875C6.61133 55.9285 7.38128 56.6985 8.32221 56.6985Z" fill="#D8DCE5"/>
<path d="M23.3484 31.5211C23.1919 31.3529 22.9371 31.3216 22.7445 31.4474C20.6823 32.7945 17.9548 33.6461 15.2749 33.4536C15.0031 33.433 14.7686 33.6499 14.7686 33.9244V38.0655C14.7686 40.7269 16.8539 43.1578 20.0084 43.1578C22.8164 43.1578 25.1009 40.8733 25.1009 38.0655V33.5901C25.1009 33.3428 25.1115 33.4161 23.3484 31.5211Z" fill="#F2D1A5"/>
<path d="M16.6235 38.0656V33.4644C16.1748 33.4883 15.7242 33.4859 15.2749 33.4536C15.0031 33.4331 14.7686 33.6499 14.7686 33.9245V38.0655C14.7686 40.727 16.8539 43.1579 20.0084 43.1579C20.2994 43.1579 20.5844 43.132 20.8622 43.0849C18.4594 42.6775 16.6235 40.5824 16.6235 38.0656Z" fill="#F2BB88"/>
<path d="M23.4934 50.1016L25.6593 45.7608L22.8926 44.6893L19.9961 48.2646L22.82 50.2702C23.0486 50.4324 23.3682 50.3525 23.4934 50.1016Z" fill="#D8DCE5"/>
<path d="M16.5028 50.1016L14.3369 45.7608L17.1036 44.6893L20.0001 48.2646L17.1762 50.2702C16.9476 50.4324 16.628 50.3525 16.5028 50.1016Z" fill="#D8DCE5"/>
<path d="M19.9997 48.267V48.2645L19.998 48.2658L19.9963 48.2645V48.267L17.9424 49.7257L18.9133 51.1869C19.6962 51.1869 20.3 51.1869 21.0829 51.1869L22.0538 49.7257L19.9997 48.267Z" fill="#EE5253"/>
<path d="M21.0259 48.9957L19.9997 48.267V48.2645L19.998 48.2658L19.9963 48.2645V48.267L17.9424 49.7257L18.9133 51.1869C19.6687 51.1869 20.2554 51.1869 20.9689 51.1869L20.1718 49.9872C20.075 49.8415 20.1114 49.6452 20.2541 49.544L21.0259 48.9957Z" fill="#D83941"/>
<path d="M18.9131 51.187L18.1665 56.6984H21.8293L21.0827 51.187C20.2995 51.187 19.6962 51.187 18.9131 51.187Z" fill="#FF6B6B"/>
<path d="M18.9131 51.187L18.1665 56.6984H20.2222L20.9686 51.187C20.252 51.187 19.6714 51.187 18.9131 51.187Z" fill="#EE5253"/>
<path d="M12.3802 56.6984V53.1632C12.3802 52.641 11.9568 52.2175 11.4345 52.2175C10.9122 52.2175 10.4888 52.6409 10.4888 53.1632V56.6984H12.3802Z" fill="#D8DCE5"/>
<path d="M29.5115 56.6984V53.1632C29.5115 52.641 29.0882 52.2175 28.5658 52.2175C28.0435 52.2175 27.6201 52.6409 27.6201 53.1632V56.6984H29.5115Z" fill="#D8DCE5"/>
<path d="M23.8229 19.5669H16.0458C15.5236 19.5669 15.1001 19.1436 15.1001 18.6212C15.1001 18.099 15.5234 17.6755 16.0458 17.6755H23.8229C24.3451 17.6755 24.7686 18.0989 24.7686 18.6212C24.7686 19.1436 24.3453 19.5669 23.8229 19.5669Z" fill="#D8DCE5"/>
<path d="M31.6779 9.29712H8.32184C7.38079 9.29712 6.61084 10.0671 6.61084 11.0081V12.8025C6.61084 13.7435 7.38079 14.5135 8.32184 14.5135H31.6778C32.6188 14.5135 33.3888 13.7435 33.3888 12.8025V11.0081C33.3888 10.0671 32.6188 9.29712 31.6779 9.29712Z" fill="#576574"/>
<path d="M31.6782 12.3698H8.32221C7.44407 12.3698 6.71548 11.6991 6.62198 10.8448C6.61635 10.8987 6.61133 10.9528 6.61133 11.0081V12.8025C6.61133 13.7435 7.38128 14.5133 8.32233 14.5133H31.6782C32.6193 14.5133 33.3891 13.7434 33.3891 12.8025V11.0081C33.3891 10.9528 33.384 10.8988 33.3785 10.8448C33.285 11.6991 32.5564 12.3698 31.6782 12.3698Z" fill="#3E4B5A"/>
</svg>
