<svg width="46" height="45" viewBox="0 0 46 45" fill="none" xmlns="http://www.w3.org/2000/svg">
<mask id="mask0_430_12" style="mask-type:luminance" maskUnits="userSpaceOnUse" x="0" y="0" width="46" height="45">
<path d="M45.1943 0H0V45H45.1943V0Z" fill="white"/>
</mask>
<g mask="url(#mask0_430_12)">
<path d="M22.9195 44.9828C17.1982 45.1331 11.3483 42.8718 7.12749 39.0285C-6.2187 26.8756 0.134577 3.67631 18.3209 0.397333C19.6392 0.159641 20.9536 0.069119 22.2897 0.00985985C22.8406 -0.0170916 23.4001 0.0394101 23.9505 0.0660821C37.8256 0.739127 47.0289 12.7424 44.8693 26.4294C43.4074 35.6958 36.0787 42.8863 26.9158 44.6056C25.5951 44.8532 24.2604 44.9436 22.9195 44.9828ZM20.5067 9.08349C13.001 9.43354 10.9862 12.5316 10.9874 19.667L10.988 23.9475C10.9878 28.1632 10.8316 32.1028 6.9676 34.5966C6.54587 34.8688 6.073 35.0909 5.69268 35.4206C7.30289 35.6235 8.9967 35.5191 10.6153 35.5191L19.502 35.5212L23.5858 35.5191C27.6073 35.5185 32.9457 35.5247 34.0069 30.6869C34.2142 29.7425 34.1896 28.7708 34.1896 27.81L34.1905 18.2809C34.2551 9.56287 27.9916 8.97764 20.8242 9.07614L20.5067 9.08349Z" fill="url(#paint0_linear_430_12)"/>
</g>
<path d="M17.413 23.5203C17.3692 22.4742 17.3795 21.4275 17.3796 20.3807C17.3799 16.2862 17.4864 14.7584 21.9949 14.3608C23.2292 14.2162 25.0737 14.4595 26.1201 15.1046C27.6345 16.0382 28.1993 18.1955 27.235 19.7261C26.2117 21.3505 23.5415 21.7302 21.8015 22.1278C20.2877 22.4831 18.8644 22.9685 17.413 23.5203Z" fill="url(#paint1_linear_430_12)"/>
<path d="M16.7051 29.7625C16.9143 28.7701 17.5937 27.7058 18.2517 26.9405C20.5711 24.2432 24.2795 23.4542 27.6911 23.198L27.9669 23.1861C27.9778 25.3674 28.0232 27.5658 27.9547 29.7459C24.3033 29.842 20.6422 29.7174 16.9889 29.7664L16.7051 29.7625Z" fill="url(#paint2_linear_430_12)"/>
<defs>
<linearGradient id="paint0_linear_430_12" x1="22.5937" y1="0.00275306" x2="22.5937" y2="44.9898" gradientUnits="userSpaceOnUse">
<stop stop-color="#EF5050"/>
<stop offset="1" stop-color="#EF5050"/>
</linearGradient>
<linearGradient id="paint1_linear_430_12" x1="22.5448" y1="14.3205" x2="22.5448" y2="23.5203" gradientUnits="userSpaceOnUse">
<stop stop-color="#EF5050"/>
<stop offset="1" stop-color="#EF5050"/>
</linearGradient>
<linearGradient id="paint2_linear_430_12" x1="22.3484" y1="23.1861" x2="22.3484" y2="29.7834" gradientUnits="userSpaceOnUse">
<stop stop-color="#EF5050"/>
<stop offset="1" stop-color="#EF5050"/>
</linearGradient>
</defs>
</svg>
