<svg width="149" height="45" viewBox="0 0 149 45" fill="none" xmlns="http://www.w3.org/2000/svg">
<path d="M56.1833 29V15.3855H65.3572V17.7587H59.0618V21.0028H64.8852V23.376H59.0618V26.6268H65.3837V29H56.1833ZM71.3551 29.1662C70.5795 29.1662 69.8771 28.9668 69.2477 28.5679C68.6229 28.1646 68.1265 27.573 67.7587 26.793C67.3952 26.0085 67.2135 25.0468 67.2135 23.9078C67.2135 22.7378 67.4019 21.7651 67.7786 20.9895C68.1553 20.2095 68.6561 19.6267 69.281 19.2411C69.9103 18.8511 70.5994 18.6561 71.3484 18.6561C71.9201 18.6561 72.3965 18.7536 72.7777 18.9486C73.1633 19.1392 73.4735 19.3785 73.7084 19.6666C73.9477 19.9502 74.1294 20.2294 74.2535 20.5042H74.3399V15.3855H77.1652V29H74.3731V27.3647H74.2535C74.1205 27.6483 73.9322 27.9297 73.6884 28.2089C73.4491 28.4837 73.1367 28.7119 72.7511 28.8936C72.37 29.0753 71.9046 29.1662 71.3551 29.1662ZM72.2525 26.9126C72.709 26.9126 73.0946 26.7885 73.4092 26.5403C73.7283 26.2877 73.9721 25.9354 74.1405 25.4834C74.3133 25.0313 74.3997 24.5017 74.3997 23.8945C74.3997 23.2874 74.3155 22.76 74.1471 22.3124C73.9787 21.8648 73.735 21.5191 73.4159 21.2753C73.0968 21.0316 72.709 20.9097 72.2525 20.9097C71.7872 20.9097 71.395 21.036 71.0759 21.2886C70.7568 21.5413 70.5152 21.8914 70.3513 22.339C70.1873 22.7866 70.1053 23.3051 70.1053 23.8945C70.1053 24.4884 70.1873 25.0136 70.3513 25.4701C70.5197 25.9221 70.7612 26.2766 71.0759 26.5337C71.395 26.7863 71.7872 26.9126 72.2525 26.9126ZM86.0416 24.6524V18.7891H88.8735V29H86.1546V27.1453H86.0482C85.8178 27.7436 85.4344 28.2244 84.8982 28.5878C84.3663 28.9512 83.7171 29.133 82.9504 29.133C82.2679 29.133 81.6674 28.9778 81.1488 28.6676C80.6303 28.3574 80.2248 27.9164 79.9323 27.3447C79.6442 26.773 79.498 26.0883 79.4936 25.2906V18.7891H82.3255V24.7853C82.3299 25.3881 82.4917 25.8645 82.8108 26.2146C83.1299 26.5647 83.5575 26.7398 84.0938 26.7398C84.435 26.7398 84.7541 26.6622 85.0511 26.5071C85.348 26.3476 85.5873 26.1127 85.769 25.8024C85.9551 25.4922 86.046 25.1089 86.0416 24.6524ZM99.6345 21.7008L97.0419 21.8603C96.9976 21.6387 96.9023 21.4393 96.756 21.262C96.6098 21.0803 96.417 20.9363 96.1777 20.8299C95.9428 20.7191 95.6614 20.6638 95.3334 20.6638C94.8947 20.6638 94.5246 20.7568 94.2232 20.943C93.9219 21.1247 93.7712 21.3684 93.7712 21.6742C93.7712 21.918 93.8687 22.124 94.0637 22.2924C94.2587 22.4609 94.5933 22.596 95.0675 22.698L96.9156 23.0702C97.9083 23.2741 98.6484 23.602 99.1359 24.0541C99.6234 24.5061 99.8672 25.1 99.8672 25.8357C99.8672 26.5049 99.67 27.0921 99.2755 27.5973C98.8855 28.1026 98.3493 28.497 97.6668 28.7806C96.9887 29.0598 96.2065 29.1994 95.3201 29.1994C93.9684 29.1994 92.8915 28.918 92.0893 28.3552C91.2916 27.7879 90.824 27.0168 90.6867 26.0418L93.4721 25.8955C93.5563 26.3077 93.7601 26.6223 94.0836 26.8395C94.4072 27.0522 94.8215 27.1586 95.3268 27.1586C95.8231 27.1586 96.222 27.0633 96.5234 26.8727C96.8292 26.6777 96.9843 26.4273 96.9887 26.1215C96.9843 25.8645 96.8757 25.654 96.663 25.49C96.4502 25.3216 96.1223 25.1931 95.6791 25.1044L93.9108 24.7521C92.9136 24.5527 92.1713 24.207 91.6838 23.7151C91.2007 23.2231 90.9592 22.596 90.9592 21.8338C90.9592 21.1778 91.1365 20.6128 91.491 20.1386C91.85 19.6644 92.353 19.2988 93.0001 19.0417C93.6515 18.7847 94.4138 18.6561 95.2869 18.6561C96.5765 18.6561 97.5914 18.9287 98.3315 19.4738C99.0761 20.0189 99.5104 20.7613 99.6345 21.7008ZM106.264 29.1994C105.231 29.1994 104.338 28.9801 103.585 28.5413C102.836 28.0981 102.258 27.4821 101.85 26.6932C101.442 25.8999 101.238 24.9803 101.238 23.9344C101.238 22.8797 101.442 21.9578 101.85 21.169C102.258 20.3757 102.836 19.7597 103.585 19.3209C104.338 18.8777 105.231 18.6561 106.264 18.6561C107.297 18.6561 108.187 18.8777 108.936 19.3209C109.69 19.7597 110.27 20.3757 110.678 21.169C111.086 21.9578 111.29 22.8797 111.29 23.9344C111.29 24.9803 111.086 25.8999 110.678 26.6932C110.27 27.4821 109.69 28.0981 108.936 28.5413C108.187 28.9801 107.297 29.1994 106.264 29.1994ZM106.277 27.0057C106.747 27.0057 107.139 26.8727 107.454 26.6068C107.769 26.3365 108.006 25.9686 108.165 25.5033C108.329 25.038 108.411 24.5084 108.411 23.9145C108.411 23.3206 108.329 22.791 108.165 22.3257C108.006 21.8603 107.769 21.4925 107.454 21.2222C107.139 20.9518 106.747 20.8166 106.277 20.8166C105.803 20.8166 105.404 20.9518 105.081 21.2222C104.762 21.4925 104.52 21.8603 104.356 22.3257C104.197 22.791 104.117 23.3206 104.117 23.9145C104.117 24.5084 104.197 25.038 104.356 25.5033C104.52 25.9686 104.762 26.3365 105.081 26.6068C105.404 26.8727 105.803 27.0057 106.277 27.0057ZM117.745 29.1994C116.699 29.1994 115.799 28.9778 115.046 28.5347C114.297 28.087 113.72 27.4666 113.317 26.6733C112.918 25.88 112.719 24.967 112.719 23.9344C112.719 22.8885 112.921 21.9711 113.324 21.1823C113.732 20.389 114.31 19.7707 115.059 19.3276C115.808 18.8799 116.699 18.6561 117.731 18.6561C118.622 18.6561 119.402 18.8179 120.071 19.1414C120.74 19.4649 121.27 19.9192 121.66 20.5042C122.05 21.0892 122.265 21.7761 122.305 22.565H119.633C119.557 22.0553 119.358 21.6454 119.034 21.3352C118.715 21.0205 118.296 20.8632 117.778 20.8632C117.339 20.8632 116.956 20.9828 116.628 21.2222C116.304 21.457 116.052 21.8005 115.87 22.2526C115.688 22.7046 115.597 23.2519 115.597 23.8945C115.597 24.546 115.686 25.1 115.863 25.5565C116.045 26.013 116.3 26.3609 116.628 26.6002C116.956 26.8395 117.339 26.9591 117.778 26.9591C118.101 26.9591 118.392 26.8927 118.649 26.7597C118.91 26.6268 119.125 26.434 119.293 26.1814C119.466 25.9243 119.579 25.6163 119.633 25.2573H122.305C122.261 26.0373 122.048 26.7243 121.667 27.3181C121.29 27.9076 120.769 28.3685 120.105 28.7009C119.44 29.0332 118.653 29.1994 117.745 29.1994ZM124.118 29V18.7891H126.95V29H124.118ZM125.541 17.4728C125.12 17.4728 124.758 17.3332 124.457 17.054C124.16 16.7704 124.012 16.4314 124.012 16.0369C124.012 15.6469 124.16 15.3123 124.457 15.0331C124.758 14.7495 125.12 14.6077 125.541 14.6077C125.962 14.6077 126.321 14.7495 126.618 15.0331C126.919 15.3123 127.07 15.6469 127.07 16.0369C127.07 16.4314 126.919 16.7704 126.618 17.054C126.321 17.3332 125.962 17.4728 125.541 17.4728ZM132.13 29.1928C131.479 29.1928 130.898 29.0798 130.389 28.8538C129.879 28.6233 129.476 28.2843 129.179 27.8366C128.886 27.3846 128.74 26.8218 128.74 26.1481C128.74 25.5809 128.844 25.1044 129.052 24.7189C129.261 24.3333 129.544 24.0231 129.903 23.7882C130.262 23.5533 130.67 23.376 131.126 23.2564C131.587 23.1367 132.07 23.0525 132.576 23.0038C133.17 22.9417 133.648 22.8841 134.012 22.8309C134.375 22.7733 134.639 22.6891 134.803 22.5783C134.967 22.4675 135.049 22.3035 135.049 22.0864V22.0465C135.049 21.6255 134.916 21.2997 134.65 21.0693C134.388 20.8388 134.016 20.7236 133.533 20.7236C133.023 20.7236 132.618 20.8366 132.316 21.0626C132.015 21.2842 131.816 21.5634 131.718 21.9002L129.099 21.6875C129.232 21.067 129.493 20.5308 129.883 20.0788C130.273 19.6223 130.776 19.2722 131.392 19.0284C132.013 18.7802 132.731 18.6561 133.546 18.6561C134.113 18.6561 134.656 18.7226 135.175 18.8556C135.698 18.9885 136.161 19.1946 136.564 19.4738C136.972 19.753 137.293 20.112 137.528 20.5507C137.763 20.9851 137.881 21.5058 137.881 22.113V29H135.195V27.584H135.115C134.951 27.9031 134.732 28.1845 134.457 28.4283C134.182 28.6676 133.852 28.856 133.466 28.9934C133.081 29.1263 132.635 29.1928 132.13 29.1928ZM132.941 27.2384C133.358 27.2384 133.726 27.1564 134.045 26.9924C134.364 26.824 134.614 26.598 134.796 26.3143C134.978 26.0307 135.069 25.7094 135.069 25.3504V24.2668C134.98 24.3244 134.858 24.3776 134.703 24.4264C134.552 24.4707 134.382 24.5128 134.191 24.5527C134 24.5881 133.81 24.6214 133.619 24.6524C133.429 24.679 133.256 24.7034 133.101 24.7255C132.768 24.7743 132.478 24.8518 132.23 24.9582C131.982 25.0645 131.789 25.2086 131.652 25.3903C131.514 25.5676 131.446 25.7891 131.446 26.0551C131.446 26.4406 131.585 26.7353 131.864 26.9392C132.148 27.1386 132.507 27.2384 132.941 27.2384ZM142.91 15.3855V29H140.078V15.3855H142.91Z" fill="#1F1F1F"/>
<mask id="mask0_430_12" style="mask-type:luminance" maskUnits="userSpaceOnUse" x="0" y="0" width="46" height="45">
<path d="M45.1943 0H0V45H45.1943V0Z" fill="white"/>
</mask>
<g mask="url(#mask0_430_12)">
<path d="M22.9195 44.9828C17.1982 45.1331 11.3483 42.8718 7.12749 39.0285C-6.2187 26.8756 0.134577 3.67631 18.3209 0.397333C19.6392 0.159641 20.9536 0.069119 22.2897 0.00985985C22.8406 -0.0170916 23.4001 0.0394101 23.9505 0.0660821C37.8256 0.739127 47.0289 12.7424 44.8693 26.4294C43.4074 35.6958 36.0787 42.8863 26.9158 44.6056C25.5951 44.8532 24.2604 44.9436 22.9195 44.9828ZM20.5067 9.08349C13.001 9.43354 10.9862 12.5316 10.9874 19.667L10.988 23.9475C10.9878 28.1632 10.8316 32.1028 6.9676 34.5966C6.54587 34.8688 6.073 35.0909 5.69268 35.4206C7.30289 35.6235 8.9967 35.5191 10.6153 35.5191L19.502 35.5212L23.5858 35.5191C27.6073 35.5185 32.9457 35.5247 34.0069 30.6869C34.2142 29.7425 34.1896 28.7708 34.1896 27.81L34.1905 18.2809C34.2551 9.56287 27.9916 8.97764 20.8242 9.07614L20.5067 9.08349Z" fill="url(#paint0_linear_430_12)"/>
</g>
<path d="M17.413 23.5203C17.3692 22.4742 17.3795 21.4275 17.3796 20.3807C17.3799 16.2862 17.4864 14.7584 21.9949 14.3608C23.2292 14.2162 25.0737 14.4595 26.1201 15.1046C27.6345 16.0382 28.1993 18.1955 27.235 19.7261C26.2117 21.3505 23.5415 21.7302 21.8015 22.1278C20.2877 22.4831 18.8644 22.9685 17.413 23.5203Z" fill="url(#paint1_linear_430_12)"/>
<path d="M16.7051 29.7625C16.9143 28.7701 17.5937 27.7058 18.2517 26.9405C20.5711 24.2432 24.2795 23.4542 27.6911 23.198L27.9669 23.1861C27.9778 25.3674 28.0232 27.5658 27.9547 29.7459C24.3033 29.842 20.6422 29.7174 16.9889 29.7664L16.7051 29.7625Z" fill="url(#paint2_linear_430_12)"/>
<defs>
<linearGradient id="paint0_linear_430_12" x1="22.5937" y1="0.00275306" x2="22.5937" y2="44.9898" gradientUnits="userSpaceOnUse">
<stop stop-color="#EF5050"/>
<stop offset="1" stop-color="#EF5050"/>
</linearGradient>
<linearGradient id="paint1_linear_430_12" x1="22.5448" y1="14.3205" x2="22.5448" y2="23.5203" gradientUnits="userSpaceOnUse">
<stop stop-color="#EF5050"/>
<stop offset="1" stop-color="#EF5050"/>
</linearGradient>
<linearGradient id="paint2_linear_430_12" x1="22.3484" y1="23.1861" x2="22.3484" y2="29.7834" gradientUnits="userSpaceOnUse">
<stop stop-color="#EF5050"/>
<stop offset="1" stop-color="#EF5050"/>
</linearGradient>
</defs>
</svg>
