<svg width="20" height="21" viewBox="0 0 20 21" fill="none" xmlns="http://www.w3.org/2000/svg">
<path fill-rule="evenodd" clip-rule="evenodd" d="M8.7088 0.445702C7.94446 -0.0839784 7.08618 -0.0660083 6.25441 0.113402C5.4607 0.284612 4.48286 0.651352 3.3185 1.08804L3.19679 1.13368C2.60977 1.35377 2.0944 1.547 1.68591 1.75438C1.24404 1.9787 0.840781 2.26034 0.534231 2.70269C0.227681 3.14505 0.105571 3.62152 0.0506814 4.11402C-5.86174e-05 4.56931 -2.85414e-05 5.11968 1.45864e-06 5.74658V14.3044C-2.85414e-05 14.9313 -5.86174e-05 15.4817 0.0506814 15.937C0.105571 16.4295 0.227681 16.906 0.534231 17.3483C0.840781 17.7907 1.24404 18.0723 1.68591 18.2966C2.09442 18.504 2.6098 18.6972 3.19685 18.9173L3.31844 18.9629C4.48281 19.3996 5.46069 19.7664 6.25441 19.9376C7.08618 20.117 7.94446 20.135 8.7088 19.6053C8.9509 19.4375 9.1449 19.2416 9.3008 19.0255H13C14.6569 19.0255 16 17.6824 16 16.0255C16 15.4732 15.5523 15.0255 15 15.0255C14.4477 15.0255 14 15.4732 14 16.0255C14 16.5778 13.5523 17.0255 13 17.0255H9.9294C10.0001 16.2858 10.0001 15.3799 10 14.3327V5.71834C10.0001 4.67112 10.0001 3.76514 9.9294 3.02545H13C13.5523 3.02545 14 3.47317 14 4.02545C14 4.57773 14.4477 5.02545 15 5.02545C15.5523 5.02545 16 4.57773 16 4.02545C16 2.3686 14.6569 1.02545 13 1.02545H9.3008C9.1448 0.809352 8.9509 0.613472 8.7088 0.445702ZM6 8.02545C6.55229 8.02545 7 8.47315 7 9.02545V11.0255C7 11.5778 6.55229 12.0255 6 12.0255C5.44772 12.0255 5 11.5778 5 11.0255V9.02545C5 8.47315 5.44772 8.02545 6 8.02545Z" fill="#EF5050"/>
<path d="M16.2929 7.31834C16.6834 6.92782 17.3166 6.92782 17.7071 7.31834L19.7071 9.31835C20.0976 9.70885 20.0976 10.3421 19.7071 10.7326L17.7071 12.7326C17.3166 13.1231 16.6834 13.1231 16.2929 12.7326C15.9024 12.3421 15.9024 11.7089 16.2929 11.3184L16.5858 11.0255H13C12.4477 11.0255 12 10.5778 12 10.0255C12 9.47315 12.4477 9.02545 13 9.02545H16.5858L16.2929 8.73255C15.9024 8.34205 15.9024 7.70887 16.2929 7.31834Z" fill="#EF5050"/>
</svg>
