<svg width="27" height="27" viewBox="0 0 27 27" fill="none" xmlns="http://www.w3.org/2000/svg">
<path d="M13.5 27C9.89408 27 6.50384 25.5957 3.95405 23.046C1.40426 20.4962 0 17.1059 0 13.5C0 9.89408 1.40426 6.50384 3.95405 3.95405C6.50384 1.40426 9.89408 0 13.5 0C17.1059 0 20.4962 1.40426 23.046 3.95405C25.5957 6.50384 27 9.89408 27 13.5C27 16.1647 26.2092 18.7563 24.7126 20.9945C24.389 21.4788 23.734 21.6089 23.2497 21.2851C22.7656 20.9613 22.6354 20.3062 22.9592 19.8222C24.2228 17.932 24.8906 15.7459 24.8906 13.5C24.8906 7.21925 19.7807 2.10938 13.5 2.10938C7.21925 2.10938 2.10938 7.21925 2.10938 13.5C2.10938 19.7807 7.21925 24.8906 13.5 24.8906C15.5832 24.8906 17.6209 24.3233 19.3924 23.2503C19.8905 22.9485 20.539 23.1077 20.841 23.606C21.1428 24.1041 20.9835 24.7528 20.4852 25.0544C18.3841 26.3272 15.9686 27 13.5 27ZM14.5743 20.5087L19.6368 8.74896C19.8079 8.35139 19.7187 7.88956 19.4116 7.58427C19.1049 7.27899 18.6424 7.19227 18.2457 7.36551L6.53865 12.4807C6.14664 12.6521 5.89698 13.0433 5.90646 13.471C5.91614 13.8986 6.18311 14.278 6.58232 14.4317L10.9436 16.1091L12.6004 20.4169C12.8524 21.0711 13.3822 21.145 13.5985 21.1465H13.6055C14.0265 21.1465 14.4076 20.896 14.5743 20.5087ZM16.6435 10.3677L13.6605 17.2969C13.3385 16.4599 12.9957 15.5686 12.7442 14.9144C12.6371 14.6358 12.4169 14.4156 12.1384 14.3085L9.73732 13.3851L16.6435 10.3677Z" fill="white"/>
</svg>
