<svg width="20" height="21" viewBox="0 0 20 21" fill="none" xmlns="http://www.w3.org/2000/svg">
<path fill-rule="evenodd" clip-rule="evenodd" d="M19.6779 11.3607C20.1074 10.8867 20.1074 10.1132 19.6779 9.63922L11.2645 0.35604C10.8343 -0.118638 10.1345 -0.118638 9.70438 0.35604L9.23378 0.875318C8.80321 1.35042 8.80311 2.12215 9.23373 2.59735L15.616 9.63901C16.0467 10.1141 16.0467 10.886 15.616 11.3611L9.23378 18.4028C8.80311 18.878 8.80316 19.6496 9.23382 20.1248L9.70443 20.6441C10.134 21.118 10.835 21.118 11.2645 20.6441L19.6779 11.3607ZM2.35345 20.6442C1.9235 21.1186 1.22305 21.1186 0.7931 20.6442L0.322493 20.1249C-0.107267 19.6507 -0.107313 18.8771 0.322492 18.4029L6.70443 11.3611C7.13504 10.8859 7.13504 10.1142 6.70443 9.63901L0.322445 2.5973C-0.107504 2.12294 -0.107458 1.34963 0.322445 0.875265L0.793051 0.355987C1.22319 -0.118637 1.92326 -0.118691 2.3534 0.355987L10.0194 8.81512C12.1698 6.44467 11.6259 7.04581 10.021 8.81685L10.7662 9.63922C11.196 10.1135 11.196 10.8865 10.7662 11.3607L2.35345 20.6442Z" fill="white"/>
</svg>
