<svg width="24" height="23" viewBox="0 0 24 23" fill="none" xmlns="http://www.w3.org/2000/svg">
<path fill-rule="evenodd" clip-rule="evenodd" d="M12 0C5.37258 0 0 5.14872 0 11.5C0 13.5876 0.581412 15.5475 1.59752 17.2365C1.80446 17.5805 1.83996 17.9993 1.66532 18.3594L0.640872 20.4718C0.011832 21.6123 0.872832 23 2.23391 23H12C18.6274 23 24 17.8512 24 11.5C24 5.14872 18.6274 0 12 0ZM8.4 8.05C7.73726 8.05 7.2 8.56488 7.2 9.2C7.2 9.83514 7.73726 10.35 8.4 10.35H10.8C11.4628 10.35 12 9.83514 12 9.2C12 8.56488 11.4628 8.05 10.8 8.05H8.4ZM8.4 12.65C7.73726 12.65 7.2 13.1649 7.2 13.8C7.2 14.4351 7.73726 14.95 8.4 14.95H15.6C16.2628 14.95 16.8 14.4351 16.8 13.8C16.8 13.1649 16.2628 12.65 15.6 12.65H8.4Z" fill="white"/>
</svg>
