<svg width="16" height="23" viewBox="0 0 16 23" fill="none" xmlns="http://www.w3.org/2000/svg">
<path d="M6.22222 22.7557H9.77778C10.2687 22.7557 10.6667 22.3577 10.6667 21.8668C10.6667 21.3759 10.2687 20.9779 9.77778 20.9779H6.22222C5.73129 20.9779 5.33333 21.3759 5.33333 21.8668C5.33333 22.3577 5.73129 22.7557 6.22222 22.7557Z" fill="#414751"/>
<path d="M8 0C7.50907 0 7.11111 0.397956 7.11111 0.888889V1.84156C4.09978 2.27418 1.77778 4.87084 1.77778 8V13.4647C1.77778 13.778 1.63667 14.0629 1.42671 14.1739C0.546667 14.6385 0 15.5426 0 16.5333C0 18.0037 1.19627 19.2 2.66667 19.2H13.3333C14.8037 19.2 16 18.0037 16 16.5333C16 15.5426 15.4533 14.6385 14.5733 14.1739C14.3633 14.063 14.2222 13.778 14.2222 13.4647V8C14.2222 4.87084 11.9002 2.27418 8.88889 1.84156V0.888889C8.88889 0.397956 8.49093 0 8 0ZM12.4444 8V13.4647C12.4444 14.4488 12.9421 15.3229 13.7432 15.7459C14.0387 15.9019 14.2222 16.2036 14.2222 16.5333C14.2222 17.0235 13.8235 17.4222 13.3333 17.4222H2.66667C2.17653 17.4222 1.77778 17.0235 1.77778 16.5333C1.77778 16.2036 1.96133 15.9019 2.2568 15.7459C3.05791 15.3229 3.55556 14.4488 3.55556 13.4647V8C3.55556 5.54933 5.54933 3.55556 8 3.55556C10.4507 3.55556 12.4444 5.54933 12.4444 8Z" fill="#414751"/>
</svg>
