<svg width="19" height="25" viewBox="0 0 19 25" fill="none" xmlns="http://www.w3.org/2000/svg">
<path d="M14.1597 2.92969C14.1511 1.31284 12.8335 0 11.2146 0C10.9386 0 10.6642 0.0387695 10.3993 0.115088L0.628906 2.92969H14.1597Z" fill="#EF5050"/>
<path d="M4.94873 12.4999H6.61045C6.66445 11.4416 6.83652 10.3946 7.1354 9.54309C6.00718 10.1258 5.17944 11.2103 4.94873 12.4999Z" fill="#EF5050"/>
<path d="M9.03306 9.09717C8.92539 9.17808 8.67563 9.48442 8.4459 10.2359C8.25068 10.8745 8.12402 11.6601 8.07715 12.5H9.98896C9.94209 11.6601 9.81543 10.8745 9.62021 10.2359C9.39048 9.48437 9.14072 9.17808 9.03306 9.09717Z" fill="#EF5050"/>
<path d="M4.94873 13.9648C5.17944 15.2544 6.00718 16.339 7.1354 16.9217C6.83652 16.0702 6.66445 15.0232 6.61045 13.9648H4.94873Z" fill="#EF5050"/>
<path d="M8.4459 16.229C8.67563 16.9805 8.92544 17.2868 9.03306 17.3677C9.14072 17.2868 9.39048 16.9805 9.62021 16.229C9.81543 15.5904 9.94209 14.8048 9.98896 13.9648H8.07715C8.12402 14.8048 8.25068 15.5904 8.4459 16.229Z" fill="#EF5050"/>
<path d="M10.9309 16.9217C12.0591 16.339 12.8869 15.2545 13.1176 13.9648H11.4559C11.4019 15.0232 11.2298 16.0702 10.9309 16.9217Z" fill="#EF5050"/>
<path d="M15.8691 4.39453H0V24.2676C0 24.6721 0.32793 25 0.732422 25H15.8691C17.0827 25 18.0664 24.0163 18.0664 22.8027V6.5918C18.0664 5.37827 17.0827 4.39453 15.8691 4.39453ZM12.9395 21.7773H5.12695C4.72246 21.7773 4.39453 21.4494 4.39453 21.0449C4.39453 20.6404 4.72246 20.3125 5.12695 20.3125H12.9395C13.3439 20.3125 13.6719 20.6404 13.6719 21.0449C13.6719 21.4494 13.3439 21.7773 12.9395 21.7773ZM9.0332 18.8477C5.93696 18.8477 3.41797 16.3287 3.41797 13.2324C3.41797 10.1362 5.93696 7.61719 9.0332 7.61719C12.1294 7.61719 14.6484 10.1362 14.6484 13.2324C14.6484 16.3287 12.1294 18.8477 9.0332 18.8477Z" fill="#EF5050"/>
<path d="M10.9309 9.54309C11.2298 10.3946 11.4019 11.4415 11.4559 12.4999H13.1176C12.8869 11.2103 12.0591 10.1258 10.9309 9.54309Z" fill="#EF5050"/>
</svg>
