<svg width="62" height="62" viewBox="0 0 62 62" fill="none" xmlns="http://www.w3.org/2000/svg">
<path d="M61.9752 0C61.9752 41.5584 62.0346 41.0764 61.9687 41.0764L59.654 46.1145L61.9687 51.1328V61.7234H32.9336V51.1328L35.2482 46.1145L32.9336 41.0764C32.9995 41.0764 32.9402 41.5657 32.9402 0L35.8417 2.98066L38.7366 0L41.6448 2.98066L44.5397 0L47.4478 2.98066L50.3494 0L53.2575 2.98066L56.1524 0L59.0605 2.98066L61.9752 0Z" fill="#DFE8FD"/>
<path d="M61.975 0V4.32591L59.0603 7.30657L56.1522 4.32591L53.2572 7.30657C53.0251 7.07511 54.0657 8.13549 50.3491 4.32591L47.4476 7.30657L44.5395 4.32591L41.6445 7.30657L38.7364 4.32591L35.8415 7.30657L32.9399 4.32591V0L35.8415 2.98066L38.7364 0L41.6445 2.98066L44.5395 0L47.4476 2.98066L50.3491 0L53.2572 2.98066L56.1522 0L59.0603 2.98066L61.975 0Z" fill="#EEF7FD"/>
<path d="M32.9336 57.3976H61.9687V61.7235H32.9336V57.3976Z" fill="#C6CFFD"/>
<path d="M42.2712 14.2702V59.9957C42.2708 60.223 42.2256 60.448 42.1382 60.6578C42.0508 60.8677 41.923 61.0583 41.7619 61.2187C41.6009 61.3791 41.4098 61.5063 41.1996 61.5929C40.9894 61.6795 40.7642 61.7238 40.5369 61.7234H32.9336V51.1328L35.2482 46.1145L32.9336 41.0764C32.9995 41.0764 32.9402 41.3718 32.9402 12.5425H40.5369C40.7642 12.5421 40.9894 12.5864 41.1996 12.673C41.4098 12.7596 41.6009 12.8867 41.7619 13.0472C41.923 13.2076 42.0508 13.3982 42.1382 13.608C42.2256 13.8179 42.2708 14.0429 42.2712 14.2702Z" fill="#C6CFFD"/>
<path d="M61.9755 0C61.9755 41.5584 62.0349 41.0764 61.969 41.0764C59.5851 46.2688 60.021 45.3205 59.6543 46.1145L61.969 51.1328V61.7234H53.2446C53.2446 1.4356 53.1918 2.94769 53.2578 2.98066L56.1527 0L59.0608 2.98066L61.9755 0Z" fill="#78C0FD"/>
<path d="M53.2446 57.3976H61.969V61.7235H53.2446V57.3976Z" fill="#699DFD"/>
<path d="M61.975 0C61.975 41.5584 62.0343 41.0764 61.9684 41.0764C59.5845 46.2688 60.0204 45.3205 59.6537 46.1145L61.9684 51.1328V61.7234H59.6603V51.1328L57.3457 46.1145C57.7308 45.2803 57.3602 46.0862 59.6603 41.0764C59.7263 41.0764 59.6669 41.7055 59.6669 2.36079L61.975 0Z" fill="#699DFD"/>
<path d="M61.9756 0V4.32591L59.0609 7.30657L56.1528 4.32591L53.2578 7.30657L53.2446 7.29339V2.97407L53.2578 2.98066L56.1528 0L59.0609 2.98066L61.9756 0Z" fill="#96DEFD"/>
<path d="M36.5691 45.4531H35.2503C35.0754 45.4531 34.9076 45.5226 34.784 45.6463C34.6603 45.7699 34.5908 45.9377 34.5908 46.1126C34.5908 46.2875 34.6603 46.4552 34.784 46.5789C34.9076 46.7025 35.0754 46.772 35.2503 46.772H36.5691C36.744 46.772 36.9118 46.7025 37.0354 46.5789C37.1591 46.4552 37.2286 46.2875 37.2286 46.1126C37.2286 45.9377 37.1591 45.7699 37.0354 45.6463C36.9118 45.5226 36.744 45.4531 36.5691 45.4531Z" fill="white"/>
<path d="M41.4075 45.453H38.9881C38.8132 45.453 38.6454 45.5225 38.5218 45.6461C38.3981 45.7698 38.3286 45.9375 38.3286 46.1124C38.3286 46.2873 38.3981 46.4551 38.5218 46.5787C38.6454 46.7024 38.8132 46.7719 38.9881 46.7719H41.4075C41.5824 46.7719 41.7502 46.7024 41.8738 46.5787C41.9975 46.4551 42.067 46.2873 42.067 46.1124C42.067 45.9375 41.9975 45.7698 41.8738 45.6461C41.7502 45.5225 41.5824 45.453 41.4075 45.453Z" fill="white"/>
<path d="M46.2443 45.453H43.8255C43.6506 45.453 43.4828 45.5225 43.3592 45.6461C43.2355 45.7698 43.166 45.9375 43.166 46.1124C43.166 46.2873 43.2355 46.4551 43.3592 46.5787C43.4828 46.7024 43.6506 46.7719 43.8255 46.7719H46.2443C46.4192 46.7719 46.5869 46.7024 46.7106 46.5787C46.8342 46.4551 46.9037 46.2873 46.9037 46.1124C46.9037 45.9375 46.8342 45.7698 46.7106 45.6461C46.5869 45.5225 46.4192 45.453 46.2443 45.453Z" fill="white"/>
<path d="M51.0815 45.453H48.6614C48.4865 45.453 48.3188 45.5225 48.1951 45.6461C48.0714 45.7698 48.002 45.9375 48.002 46.1124C48.002 46.2873 48.0714 46.4551 48.1951 46.5787C48.3188 46.7024 48.4865 46.7719 48.6614 46.7719H51.0815C51.2564 46.7719 51.4242 46.7024 51.5478 46.5787C51.6715 46.4551 51.741 46.2873 51.741 46.1124C51.741 45.9375 51.6715 45.7698 51.5478 45.6461C51.4242 45.5225 51.2564 45.453 51.0815 45.453Z" fill="white"/>
<path d="M55.9191 45.453H53.5003C53.3254 45.453 53.1576 45.5225 53.034 45.6461C52.9103 45.7698 52.8408 45.9375 52.8408 46.1124C52.8408 46.2873 52.9103 46.4551 53.034 46.5787C53.1576 46.7024 53.3254 46.7719 53.5003 46.7719H55.9191C56.094 46.7719 56.2617 46.7024 56.3854 46.5787C56.509 46.4551 56.5785 46.2873 56.5785 46.1124C56.5785 45.9375 56.509 45.7698 56.3854 45.6461C56.2617 45.5225 56.094 45.453 55.9191 45.453Z" fill="white"/>
<path d="M59.6541 46.1145L59.9311 46.7146C59.7721 46.7944 59.7497 46.774 58.3352 46.774C58.1603 46.774 57.9926 46.7045 57.8689 46.5808C57.7453 46.4571 57.6758 46.2894 57.6758 46.1145C57.6758 45.9396 57.7453 45.7719 57.8689 45.6482C57.9926 45.5246 58.1603 45.4551 58.3352 45.4551C59.6904 45.4551 59.7675 45.4327 59.9311 45.5144L59.6541 46.1145Z" fill="white"/>
<path d="M42.9031 6.77576C42.7282 6.77576 42.5605 6.84523 42.4368 6.9689C42.3131 7.09257 42.2437 7.2603 42.2437 7.43519V23.085C42.2437 23.2599 42.3131 23.4276 42.4368 23.5513C42.5605 23.6749 42.7282 23.7444 42.9031 23.7444C43.078 23.7444 43.2457 23.6749 43.3694 23.5513C43.4931 23.4276 43.5625 23.2599 43.5625 23.085V7.43519C43.5625 7.2603 43.4931 7.09257 43.3694 6.9689C43.2457 6.84523 43.078 6.77576 42.9031 6.77576Z" fill="#3F466A"/>
<path d="M45.947 6.77576C45.7721 6.77576 45.6044 6.84523 45.4807 6.9689C45.3571 7.09257 45.2876 7.2603 45.2876 7.43519V23.085C45.2876 23.2599 45.3571 23.4276 45.4807 23.5513C45.6044 23.6749 45.7721 23.7444 45.947 23.7444C46.1219 23.7444 46.2897 23.6749 46.4133 23.5513C46.537 23.4276 46.6065 23.2599 46.6065 23.085V7.43519C46.6065 7.2603 46.537 7.09257 46.4133 6.9689C46.2897 6.84523 46.1219 6.77576 45.947 6.77576Z" fill="#3F466A"/>
<path d="M39.8606 6.77576C39.6857 6.77576 39.518 6.84523 39.3943 6.9689C39.2707 7.09257 39.2012 7.2603 39.2012 7.43519V19.4205C39.2012 19.5954 39.2707 19.7631 39.3943 19.8868C39.518 20.0104 39.6857 20.0799 39.8606 20.0799C40.0355 20.0799 40.2032 20.0104 40.3269 19.8868C40.4506 19.7631 40.52 19.5954 40.52 19.4205V7.43519C40.52 7.2603 40.4506 7.09257 40.3269 6.9689C40.2032 6.84523 40.0355 6.77576 39.8606 6.77576Z" fill="#3F466A"/>
<path d="M45.947 28.0168C45.7721 28.0168 45.6044 28.0863 45.4807 28.21C45.3571 28.3337 45.2876 28.5014 45.2876 28.6763V40.4598C45.2876 40.6347 45.3571 40.8024 45.4807 40.9261C45.6044 41.0497 45.7721 41.1192 45.947 41.1192C46.1219 41.1192 46.2897 41.0497 46.4133 40.9261C46.537 40.8024 46.6065 40.6347 46.6065 40.4598V28.6763C46.6065 28.5014 46.537 28.3337 46.4133 28.21C46.2897 28.0863 46.1219 28.0168 45.947 28.0168Z" fill="#3F466A"/>
<path d="M42.9031 28.0168C42.7282 28.0168 42.5605 28.0863 42.4368 28.21C42.3131 28.3337 42.2437 28.5014 42.2437 28.6763V40.4598C42.2437 40.6347 42.3131 40.8024 42.4368 40.9261C42.5605 41.0497 42.7282 41.1192 42.9031 41.1192C43.078 41.1192 43.2457 41.0497 43.3694 40.9261C43.4931 40.8024 43.5625 40.6347 43.5625 40.4598V28.6763C43.5625 28.5014 43.4931 28.3337 43.3694 28.21C43.2457 28.0863 43.078 28.0168 42.9031 28.0168Z" fill="#3F466A"/>
<path d="M39.8606 28.0168C39.6857 28.0168 39.518 28.0863 39.3943 28.21C39.2707 28.3337 39.2012 28.5014 39.2012 28.6763V37.7014C39.2012 37.8762 39.2707 38.044 39.3943 38.1676C39.518 38.2913 39.6857 38.3608 39.8606 38.3608C40.0355 38.3608 40.2032 38.2913 40.3269 38.1676C40.4506 38.044 40.52 37.8762 40.52 37.7014V28.6763C40.52 28.5014 40.4506 28.3337 40.3269 28.21C40.2032 28.0863 40.0355 28.0168 39.8606 28.0168Z" fill="#3F466A"/>
<path d="M56.877 6.42554H61.9744V36.5137H56.877V6.42554Z" fill="#3F3976"/>
<path d="M36.9419 51.1355H49.2378V58.0326H36.9419V51.1355Z" fill="#FFB74D"/>
<path d="M36.9419 51.1355H41.103V58.0326H36.9419V51.1355Z" fill="#FF4956"/>
<path d="M4.66016 12.5405H35.7197C36.1788 12.5405 36.6191 12.7229 36.9437 13.0475C37.2683 13.3722 37.4507 13.8125 37.4507 14.2716V59.9944C37.4502 60.4532 37.2675 60.8931 36.9428 61.2173C36.6181 61.5416 36.1779 61.7236 35.719 61.7234H4.66016V12.5405Z" fill="#5370DF"/>
<path d="M4.66016 12.5405H35.7197C36.1788 12.5405 36.6191 12.7229 36.9437 13.0475C37.2683 13.3722 37.4507 13.8125 37.4507 14.2716V52.7353C37.4511 52.9629 37.4067 53.1884 37.3198 53.3989C37.233 53.6093 37.1055 53.8005 36.9446 53.9616C36.7838 54.1227 36.5927 54.2505 36.3824 54.3377C36.1721 54.4249 35.9467 54.4697 35.719 54.4696H4.66016V12.5405Z" fill="#4993EE"/>
<path d="M34.8125 41.5935V16.2776C34.8125 15.6705 34.3203 15.1783 33.7132 15.1783H8.39739C7.79027 15.1783 7.2981 15.6705 7.2981 16.2776V41.5935C7.2981 42.2006 7.79027 42.6927 8.39739 42.6927H33.7132C34.3203 42.6927 34.8125 42.2006 34.8125 41.5935Z" fill="#49B1FD"/>
<path d="M25.876 17.816V25.5038H16.235V17.816H25.876Z" fill="#DFE8FD"/>
<path d="M4.66025 12.5405H1.95655C1.69965 12.5404 1.44524 12.591 1.20786 12.6892C0.970486 12.7875 0.754792 12.9315 0.573101 13.1132C0.39141 13.2948 0.247281 13.5104 0.148947 13.7478C0.0506125 13.9851 -1.46017e-08 14.2395 0 14.4964V59.7688C0.000259619 60.0258 0.0511463 60.2803 0.149754 60.5176C0.248361 60.7549 0.392756 60.9705 0.574693 61.152C0.756629 61.3335 0.972542 61.4774 1.2101 61.5754C1.44765 61.6735 1.7022 61.7238 1.95919 61.7234H4.66289L4.66025 12.5405Z" fill="#717ABC"/>
<path d="M21.0554 19.923C19.1438 19.923 17.2752 20.4898 15.6859 21.5518C14.0965 22.6138 12.8577 24.1233 12.1262 25.8893C11.3948 27.6554 11.2034 29.5986 11.5764 31.4734C11.9494 33.3482 12.8699 35.0703 14.2216 36.4219C15.5733 37.7735 17.2954 38.694 19.1703 39.0668C21.0451 39.4396 22.9884 39.2482 24.7543 38.5166C26.5203 37.785 28.0297 36.5461 29.0916 34.9567C30.1535 33.3672 30.7202 31.4986 30.7201 29.587C30.7173 27.0247 29.6981 24.5681 27.8862 22.7564C26.0743 20.9446 23.6177 19.9256 21.0554 19.923ZM29.3676 28.9276H24.5616C24.4956 26.0221 23.9859 23.1859 23.0607 21.4957C24.7577 21.9182 26.2792 22.8628 27.4108 24.1962C28.5423 25.5295 29.2268 27.1845 29.3676 28.9276ZM21.0554 37.9329C20.3412 37.9329 18.9821 35.2226 18.8693 30.2465H23.2421C23.1293 35.2226 21.7702 37.9329 21.0554 37.9329ZM18.8693 28.9276C18.9821 23.9521 20.3412 21.2418 21.0554 21.2418C21.7695 21.2418 23.1293 23.9521 23.2421 28.9276H18.8693ZM19.0526 21.4977C18.1294 23.1879 17.6184 26.0241 17.5518 28.9296H12.7438C12.8847 27.1862 13.5695 25.5311 14.7014 24.1977C15.8333 22.8643 17.3553 21.9199 19.0526 21.4977ZM12.7458 30.2485H17.5518C17.6177 33.1546 18.1274 35.9902 19.0526 37.681C17.3549 37.2587 15.8326 36.3139 14.7007 34.98C13.5687 33.646 12.8842 31.9903 12.7438 30.2465L12.7458 30.2485ZM23.0607 37.679C23.9839 35.9882 24.495 33.1526 24.5616 30.2465H29.3676C29.2269 31.9897 28.5425 33.6448 27.411 34.9783C26.2794 36.3118 24.7578 37.2565 23.0607 37.679Z" fill="#3F467E"/>
<path d="M10.063 44.6783H32.0473V56.8503H10.063V44.6783Z" fill="#626BA8"/>
<path d="M28.8785 48.3804H13.2307C13.0558 48.3804 12.8881 48.3109 12.7644 48.1873C12.6408 48.0636 12.5713 47.8959 12.5713 47.721C12.5713 47.5461 12.6408 47.3783 12.7644 47.2547C12.8881 47.131 13.0558 47.0615 13.2307 47.0615H28.8785C29.0534 47.0615 29.2212 47.131 29.3448 47.2547C29.4685 47.3783 29.538 47.5461 29.538 47.721C29.538 47.8959 29.4685 48.0636 29.3448 48.1873C29.2212 48.3109 29.0534 48.3804 28.8785 48.3804Z" fill="#3F466A"/>
<path d="M28.8785 51.4236H13.2307C13.0558 51.4236 12.8881 51.3541 12.7644 51.2305C12.6408 51.1068 12.5713 50.9391 12.5713 50.7642C12.5713 50.5893 12.6408 50.4215 12.7644 50.2979C12.8881 50.1742 13.0558 50.1047 13.2307 50.1047H28.8785C29.0534 50.1047 29.2212 50.1742 29.3448 50.2979C29.4685 50.4215 29.538 50.5893 29.538 50.7642C29.538 50.9391 29.4685 51.1068 29.3448 51.2305C29.2212 51.3541 29.0534 51.4236 28.8785 51.4236Z" fill="#3F466A"/>
<path d="M25.2167 54.4696H13.2307C13.0558 54.4696 12.8881 54.4002 12.7644 54.2765C12.6408 54.1528 12.5713 53.9851 12.5713 53.8102C12.5713 53.6353 12.6408 53.4676 12.7644 53.3439C12.8881 53.2202 13.0558 53.1508 13.2307 53.1508H25.2167C25.3916 53.1508 25.5593 53.2202 25.683 53.3439C25.8066 53.4676 25.8761 53.6353 25.8761 53.8102C25.8761 53.9851 25.8066 54.1528 25.683 54.2765C25.5593 54.4002 25.3916 54.4696 25.2167 54.4696Z" fill="#3F466A"/>
<path d="M0.00244141 23.7186H4.66005V50.5465H0.00244141V23.7186Z" fill="#3F3976"/>
<path d="M49.2378 10.9552H53.2445V28.5536H49.2378V10.9552Z" fill="white"/>
<path d="M49.2378 31.7144H53.2445V34.6627H49.2378V31.7144Z" fill="white"/>
</svg>
