<svg width="17" height="17" viewBox="0 0 17 17" fill="none" xmlns="http://www.w3.org/2000/svg">
<path d="M13.1042 0H3.89583C1.74958 0 0 1.74958 0 3.89583V13.1042C0 15.2504 1.74958 17 3.89583 17H13.1042C15.2504 17 17 15.2504 17 13.1042V3.89583C17 1.74958 15.2504 0 13.1042 0ZM14.875 13.1042C14.875 14.0817 14.0817 14.875 13.1042 14.875H3.89583C2.91833 14.875 2.125 14.0817 2.125 13.1042V3.89583C2.125 2.91833 2.91833 2.125 3.89583 2.125H13.1042C14.0817 2.125 14.875 2.91833 14.875 3.89583V13.1042ZM3.54167 4.60417C3.54167 4.01625 4.01625 3.54167 4.60417 3.54167H10.2708C10.8588 3.54167 11.3333 4.01625 11.3333 4.60417C11.3333 5.19208 10.8588 5.66667 10.2708 5.66667H4.60417C4.01625 5.66667 3.54167 5.19208 3.54167 4.60417ZM13.4583 8.5C13.4583 9.08792 12.9838 9.5625 12.3958 9.5625H4.60417C4.01625 9.5625 3.54167 9.08792 3.54167 8.5C3.54167 7.91208 4.01625 7.4375 4.60417 7.4375H12.3958C12.9838 7.4375 13.4583 7.91208 13.4583 8.5ZM7.08333 12.3958C7.08333 12.9838 6.60875 13.4583 6.02083 13.4583H4.60417C4.01625 13.4583 3.54167 12.9838 3.54167 12.3958C3.54167 11.8079 4.01625 11.3333 4.60417 11.3333H6.02083C6.60875 11.3333 7.08333 11.8079 7.08333 12.3958Z" fill="#C9C9C9"/>
</svg>
