<svg width="22" height="22" viewBox="0 0 22 22" fill="none" xmlns="http://www.w3.org/2000/svg">
<path d="M20.9275 1.0725C20.2396 0.386029 19.3075 0.00034514 18.3356 0H3.66437C2.69252 0 1.76047 0.386067 1.07327 1.07327C0.386067 1.76047 0 2.69252 0 3.66437V18.3356C0 19.3075 0.386067 20.2395 1.07327 20.9267C1.76047 21.6139 2.69252 22 3.66437 22H18.3356C19.3075 22 20.2395 21.6139 20.9267 20.9267C21.6139 20.2395 22 19.3075 22 18.3356V3.66437C21.9997 2.69252 21.614 1.76045 20.9275 1.0725ZM2.11063 2.11063C2.31431 1.90592 2.55642 1.74345 2.82305 1.63255C3.08968 1.52165 3.3756 1.4645 3.66437 1.46438H18.3356C18.9185 1.46619 19.4771 1.69856 19.8893 2.11074C20.3014 2.52293 20.5338 3.08146 20.5356 3.66437V5.86437H1.46438V3.66437C1.46613 3.08143 1.69845 2.52286 2.11063 2.11063ZM19.8894 19.8894C19.6857 20.0941 19.4436 20.2566 19.177 20.3675C18.9103 20.4784 18.6244 20.5355 18.3356 20.5356H3.66437C3.08146 20.5338 2.52293 20.3014 2.11074 19.8893C1.69856 19.4771 1.46619 18.9185 1.46438 18.3356V7.33563H20.5356V18.3356C20.5339 18.9186 20.3015 19.4771 19.8894 19.8894Z" fill="#9CA3AE"/>
<path d="M17.6 4.39996C17.7455 4.39996 17.8877 4.35682 18.0087 4.27599C18.1297 4.19515 18.224 4.08027 18.2796 3.94585C18.3353 3.81143 18.3499 3.66352 18.3215 3.52082C18.2931 3.37813 18.223 3.24705 18.1202 3.14417C18.0173 3.04129 17.8862 2.97123 17.7435 2.94285C17.6008 2.91446 17.4529 2.92903 17.3185 2.98471C17.1841 3.04039 17.0692 3.13467 16.9884 3.25565C16.9075 3.37662 16.8644 3.51884 16.8644 3.66434C16.8644 3.85944 16.9419 4.04655 17.0798 4.1845C17.2178 4.32246 17.4049 4.39996 17.6 4.39996Z" fill="#9CA3AE"/>
<path d="M14.6644 4.40006C14.7665 4.40997 14.8696 4.39841 14.9669 4.36612C15.0643 4.33383 15.1539 4.28153 15.2298 4.21258C15.3058 4.14362 15.3665 4.05954 15.408 3.96574C15.4496 3.87193 15.471 3.77047 15.471 3.66788C15.471 3.56528 15.4496 3.46382 15.408 3.37002C15.3665 3.27621 15.3058 3.19213 15.2298 3.12318C15.1539 3.05422 15.0643 3.00192 14.9669 2.96963C14.8696 2.93734 14.7665 2.92578 14.6644 2.93569C14.4824 2.95334 14.3136 3.0381 14.1907 3.17346C14.0678 3.30882 13.9998 3.48507 13.9998 3.66788C13.9998 3.85068 14.0678 4.02693 14.1907 4.16229C14.3136 4.29765 14.4824 4.38241 14.6644 4.40006Z" fill="#9CA3AE"/>
<path d="M4.40001 4.40006H7.33564C7.51758 4.38241 7.68644 4.29765 7.8093 4.16229C7.93217 4.02693 8.00023 3.85068 8.00023 3.66788C8.00023 3.48507 7.93217 3.30882 7.8093 3.17346C7.68644 3.0381 7.51758 2.95334 7.33564 2.93569H4.40001C4.2979 2.92578 4.19484 2.93734 4.09746 2.96963C4.00008 3.00192 3.91053 3.05422 3.83456 3.12318C3.7586 3.19213 3.69789 3.27621 3.65635 3.37002C3.61481 3.46382 3.59335 3.56528 3.59335 3.66788C3.59335 3.77047 3.61481 3.87193 3.65635 3.96574C3.69789 4.05954 3.7586 4.14362 3.83456 4.21258C3.91053 4.28153 4.00008 4.33383 4.09746 4.36612C4.19484 4.39841 4.2979 4.40997 4.40001 4.40006Z" fill="#9CA3AE"/>
<path d="M11 9.53568H4.39999C4.30371 9.53477 4.20821 9.55295 4.119 9.58916C4.02979 9.62538 3.94864 9.67892 3.88024 9.74668C3.81184 9.81444 3.75754 9.89508 3.72049 9.98395C3.68344 10.0728 3.66436 10.1681 3.66437 10.2644V17.6001C3.66437 17.7952 3.74187 17.9823 3.87983 18.1202C4.01778 18.2582 4.20489 18.3357 4.39999 18.3357H11C11.1951 18.3357 11.3822 18.2582 11.5202 18.1202C11.6581 17.9823 11.7356 17.7952 11.7356 17.6001V10.2644C11.7356 10.1681 11.7165 10.0728 11.6795 9.98395C11.6424 9.89508 11.5881 9.81444 11.5197 9.74668C11.4513 9.67892 11.3702 9.62538 11.281 9.58916C11.1918 9.55295 11.0963 9.53477 11 9.53568ZM10.2644 16.8644H5.13562V11.0001H10.2644V16.8644Z" fill="#9CA3AE"/>
<path d="M17.6 10.2644H13.9356C13.7405 10.2644 13.5534 10.3419 13.4154 10.4799C13.2775 10.6178 13.2 10.8049 13.2 11C13.2 11.1951 13.2775 11.3822 13.4154 11.5202C13.5534 11.6582 13.7405 11.7357 13.9356 11.7357H17.6C17.7951 11.7357 17.9822 11.6582 18.1201 11.5202C18.2581 11.3822 18.3356 11.1951 18.3356 11C18.3356 10.8049 18.2581 10.6178 18.1201 10.4799C17.9822 10.3419 17.7951 10.2644 17.6 10.2644Z" fill="#9CA3AE"/>
<path d="M17.6 13.2H13.9356C13.8335 13.1901 13.7305 13.2016 13.6331 13.2339C13.5357 13.2662 13.4461 13.3185 13.3702 13.3875C13.2942 13.4564 13.2335 13.5405 13.192 13.6343C13.1504 13.7281 13.129 13.8296 13.129 13.9322C13.129 14.0348 13.1504 14.1362 13.192 14.23C13.2335 14.3238 13.2942 14.4079 13.3702 14.4769C13.4461 14.5458 13.5357 14.5981 13.6331 14.6304C13.7305 14.6627 13.8335 14.6743 13.9356 14.6643H17.6C17.7021 14.6743 17.8052 14.6627 17.9026 14.6304C17.9999 14.5981 18.0895 14.5458 18.1654 14.4769C18.2414 14.4079 18.3021 14.3238 18.3437 14.23C18.3852 14.1362 18.4067 14.0348 18.4067 13.9322C18.4067 13.8296 18.3852 13.7281 18.3437 13.6343C18.3021 13.5405 18.2414 13.4564 18.1654 13.3875C18.0895 13.3185 17.9999 13.2662 17.9026 13.2339C17.8052 13.2016 17.7021 13.1901 17.6 13.2Z" fill="#9CA3AE"/>
<path d="M17.6 16.1356H13.9356C13.8335 16.1257 13.7305 16.1373 13.6331 16.1696C13.5357 16.2019 13.4461 16.2542 13.3702 16.3231C13.2942 16.3921 13.2335 16.4762 13.192 16.57C13.1504 16.6638 13.129 16.7652 13.129 16.8678C13.129 16.9704 13.1504 17.0719 13.192 17.1657C13.2335 17.2595 13.2942 17.3436 13.3702 17.4125C13.4461 17.4815 13.5357 17.5338 13.6331 17.5661C13.7305 17.5984 13.8335 17.6099 13.9356 17.6H17.6C17.7021 17.6099 17.8052 17.5984 17.9026 17.5661C17.9999 17.5338 18.0895 17.4815 18.1654 17.4125C18.2414 17.3436 18.3021 17.2595 18.3437 17.1657C18.3852 17.0719 18.4067 16.9704 18.4067 16.8678C18.4067 16.7652 18.3852 16.6638 18.3437 16.57C18.3021 16.4762 18.2414 16.3921 18.1654 16.3231C18.0895 16.2542 17.9999 16.2019 17.9026 16.1696C17.8052 16.1373 17.7021 16.1257 17.6 16.1356Z" fill="#9CA3AE"/>
</svg>
