<svg width="26" height="20" viewBox="0 0 26 20" fill="none" xmlns="http://www.w3.org/2000/svg">
<path d="M23.1 0H2.5C1.12 0 0 1.12 0 2.5V17.5C0 18.88 1.12 20 2.5 20H23.1C24.48 20 25.6 18.88 25.6 17.5V2.5C25.6 1.12 24.48 0 23.1 0ZM7.94 4.325C9.47 4.325 10.71 5.565 10.71 7.095C10.71 8.625 9.47 9.865 7.94 9.865C6.41 9.865 5.17 8.625 5.17 7.095C5.17 5.565 6.41 4.325 7.94 4.325ZM11.56 15.675H4.325C3.31 15.675 2.585 14.685 2.895 13.72L3.725 11.135C3.955 10.425 4.75 10.065 5.43 10.38C6.04 10.66 6.875 10.905 7.94 10.905C9.005 10.905 9.845 10.66 10.45 10.38C11.13 10.07 11.93 10.425 12.155 11.135L12.985 13.72C13.3 14.685 12.575 15.675 11.56 15.675ZM22.05 12.35H16.45C16.065 12.35 15.75 12.035 15.75 11.65C15.75 11.265 16.065 10.95 16.45 10.95H22.05C22.435 10.95 22.75 11.265 22.75 11.65C22.75 12.035 22.44 12.35 22.05 12.35ZM22.05 9.85H16.45C16.065 9.85 15.75 9.535 15.75 9.15C15.75 8.765 16.065 8.45 16.45 8.45H22.05C22.435 8.45 22.75 8.765 22.75 9.15C22.75 9.535 22.44 9.85 22.05 9.85ZM22.05 7.35H16.45C16.065 7.35 15.75 7.035 15.75 6.65C15.75 6.265 16.065 5.95 16.45 5.95H22.05C22.435 5.95 22.75 6.265 22.75 6.65C22.75 7.035 22.44 7.35 22.05 7.35Z" fill="#EF5050"/>
</svg>
