<svg width="41" height="44" viewBox="0 0 41 44" fill="none" xmlns="http://www.w3.org/2000/svg">
<g filter="url(#filter0_d_20_422)">
<path fill-rule="evenodd" clip-rule="evenodd" d="M20.3506 10C18.6937 10 17.3506 11.3432 17.3506 13C17.3506 14.6568 18.6937 16 20.3506 16C22.0074 16 23.3506 14.6568 23.3506 13C23.3506 11.3432 22.0074 10 20.3506 10ZM15.3506 13C15.3506 10.2386 17.5892 8 20.3506 8C23.112 8 25.3506 10.2386 25.3506 13C25.3506 15.7614 23.112 18 20.3506 18C17.5892 18 15.3506 15.7614 15.3506 13Z" fill="#EF5050"/>
<path fill-rule="evenodd" clip-rule="evenodd" d="M20.3506 21C16.9082 21 15.0986 22.2198 14.1958 23.6976C13.8816 24.212 13.9606 24.6971 14.3442 25.1428C14.7626 25.629 15.5192 26 16.3506 26H24.3506C25.182 26 25.9386 25.629 26.357 25.1428C26.7406 24.6971 26.8196 24.212 26.5055 23.6976C25.6027 22.2198 23.793 21 20.3506 21ZM12.489 22.655C13.8383 20.4462 16.3875 19 20.3506 19C24.3138 19 26.8629 20.4462 28.2122 22.655C29.0497 24.0259 28.7291 25.4526 27.873 26.4474C27.0516 27.4018 25.7283 28 24.3506 28H16.3506C14.9729 28 13.6496 27.4018 12.8283 26.4474C11.9721 25.4526 11.6516 24.0259 12.489 22.655Z" fill="#EF5050"/>
</g>

</svg>
