<svg width="17" height="20" viewBox="0 0 17 20" fill="none" xmlns="http://www.w3.org/2000/svg">
<path fill-rule="evenodd" clip-rule="evenodd" d="M8.35064 2C6.69374 2 5.35064 3.34315 5.35064 5C5.35064 6.65685 6.69374 8 8.35064 8C10.0074 8 11.3506 6.65685 11.3506 5C11.3506 3.34315 10.0074 2 8.35064 2ZM3.35063 5C3.35063 2.23858 5.58921 0 8.35064 0C11.112 0 13.3506 2.23858 13.3506 5C13.3506 7.76142 11.112 10 8.35064 10C5.58921 10 3.35063 7.76142 3.35063 5Z" fill="#9CA3AE"/>
<path fill-rule="evenodd" clip-rule="evenodd" d="M8.35065 13C4.90819 13 3.09855 14.2198 2.19577 15.6976C1.88159 16.212 1.96061 16.6971 2.34418 17.1428C2.7626 17.629 3.51923 18 4.35064 18H12.3506C13.182 18 13.9386 17.629 14.357 17.1428C14.7406 16.6971 14.8196 16.212 14.5055 15.6976C13.6027 14.2198 11.793 13 8.35065 13ZM0.489025 14.655C1.83834 12.4462 4.38748 11 8.35065 11C12.3138 11 14.8629 12.4462 16.2122 14.655C17.0497 16.0259 16.7291 17.4526 15.873 18.4474C15.0516 19.4018 13.7283 20 12.3506 20H4.35064C2.97292 20 1.6496 19.4018 0.828285 18.4474C-0.027885 17.4526 -0.348415 16.0259 0.489025 14.655Z" fill="#9CA3AE"/>
</svg>
