<svg width="19" height="19" viewBox="0 0 19 19" fill="none" xmlns="http://www.w3.org/2000/svg">
<path d="M10.6905 16.6189C6.10134 16.6189 2.38103 12.8987 2.38103 8.30944C2.38103 3.72022 6.10129 0 10.6905 0C15.2797 0 19 3.72026 19 8.30948C19 12.8987 15.2797 16.6189 10.6905 16.6189ZM10.6905 2.37415C7.41251 2.37415 4.75518 5.03148 4.75518 8.30948C4.75518 11.5875 7.41251 14.2448 10.6905 14.2448C13.9685 14.2448 16.6259 11.5875 16.6259 8.30948C16.6259 5.03148 13.9685 2.37415 10.6905 2.37415Z" fill="#414751"/>
<path d="M1.19395 18.993C0.878415 18.9949 0.575151 18.871 0.35114 18.6488C-0.114353 18.1871 -0.117422 17.4355 0.344266 16.97C0.346557 16.9677 0.348849 16.9654 0.35114 16.9632L4.81451 12.4998C5.29637 12.0343 6.06435 12.0476 6.52984 12.5295C6.99533 13.0113 6.98203 13.7793 6.50018 14.2448L2.03677 18.6488C1.81276 18.871 1.50949 18.9949 1.19395 18.993Z" fill="#414751"/>
</svg>
