<svg width="24" height="26" viewBox="0 0 24 26" fill="none" xmlns="http://www.w3.org/2000/svg">
<path d="M17.1449 22.0379C13.4499 24.1712 8.88333 23.0446 6.83333 19.4939L2.6282 12.2104C1.15641 9.66116 2.08438 6.45478 4.73723 4.92316C7.39008 3.39154 10.6309 4.19108 12.1027 6.7403L16.3078 14.0238C17.2014 15.5715 16.653 17.4662 15.0424 18.3961C13.4317 19.326 11.5167 18.8536 10.6231 17.3058L6.41799 10.0224C6.1026 9.47609 6.27133 8.89311 6.83979 8.56491C7.40826 8.2367 7.9975 8.38207 8.31288 8.92834L12.518 16.2118C12.8334 16.7581 13.4226 16.9035 13.9911 16.5753C14.5596 16.2471 14.7283 15.6641 14.4129 15.1178L10.2078 7.83432C9.31418 6.28658 7.39917 5.81412 5.78851 6.74403C4.17785 7.67395 3.62951 9.56863 4.5231 11.1164L8.72822 18.3999C10.2 20.9491 13.4408 21.7486 16.0937 20.217C18.7465 18.6854 19.6745 15.479 18.2027 12.9298L13.9976 5.64629C13.6822 5.10003 13.8509 4.51705 14.4194 4.18884C14.9878 3.86064 15.5771 4.00601 15.8924 4.55227L20.0976 11.8358C22.1476 15.3865 20.84 19.9045 17.1449 22.0379Z" fill="#C9C9C9"/>
</svg>
