<svg width="20" height="20" viewBox="0 0 20 20" fill="none" xmlns="http://www.w3.org/2000/svg">
<path d="M18.9033 7.82833L17.3366 7.62917C17.2074 7.23167 17.0482 6.84833 16.8624 6.48417L17.8299 5.23833C18.2216 4.73417 18.1758 4.0225 17.7282 3.58917L16.4157 2.27667C15.9782 1.825 15.2665 1.78 14.7614 2.17083L13.5172 3.13833C13.153 2.9525 12.7697 2.79333 12.3713 2.66417L12.1722 1.1C12.0972 0.4725 11.5646 0 10.9338 0H9.06704C8.43618 0 7.90366 0.4725 7.82866 1.0975L7.62948 2.66417C7.23113 2.79333 6.84778 2.95167 6.4836 3.13833L5.23855 2.17083C4.7352 1.78 4.0235 1.825 3.58932 2.2725L2.27676 3.58417C1.82508 4.0225 1.77924 4.73417 2.17092 5.23917L3.13846 6.48417C2.95179 6.84833 2.79345 7.23167 2.66428 7.62917L1.10005 7.82833C0.47252 7.90333 0 8.43583 0 9.06667V10.9333C0 11.5642 0.47252 12.0967 1.09755 12.1717L2.66428 12.3708C2.79345 12.7683 2.95262 13.1517 3.13846 13.5158L2.17092 14.7617C1.77924 15.2658 1.82508 15.9775 2.27259 16.4108L3.58515 17.7233C4.0235 18.1742 4.73436 18.2192 5.23938 17.8283L6.48444 16.8608C6.84862 17.0475 7.23197 17.2067 7.62948 17.335L7.82866 18.8983C7.90366 19.5275 8.43618 20 9.06704 20H10.9338C11.5646 20 12.0972 19.5275 12.1722 18.9025L12.3713 17.3358C12.7689 17.2067 13.1522 17.0475 13.5164 16.8617L14.7623 17.8292C15.2665 18.2208 15.9782 18.175 16.4115 17.7275L17.7241 16.415C18.1758 15.9767 18.2216 15.2658 17.8299 14.7608L16.8624 13.5158C17.049 13.1517 17.2082 12.7683 17.3366 12.3708L18.9 12.1717C19.5275 12.0967 20 11.5642 20 10.9333V9.06667C20.0008 8.43583 19.5283 7.90333 18.9033 7.82833ZM10.0004 14.1667C7.70282 14.1667 5.83358 12.2975 5.83358 10C5.83358 7.7025 7.70282 5.83333 10.0004 5.83333C12.298 5.83333 14.1673 7.7025 14.1673 10C14.1673 12.2975 12.298 14.1667 10.0004 14.1667Z" fill="#414751"/>
</svg>
