<svg width="17" height="20" viewBox="0 0 17 20" fill="none" xmlns="http://www.w3.org/2000/svg">
<path d="M3.15545 15.3125H13.8445C15.5845 15.3125 17 13.9107 17 12.1875V3.125C17 1.40182 15.5845 0 13.8445 0H3.15545C1.41549 0 0 1.40182 0 3.125V16.875C0 18.5982 1.41549 20 3.15545 20H13.8445C15.5845 20 17 18.5982 17 16.875C17 16.4435 16.6469 16.0938 16.2111 16.0938C15.7754 16.0938 15.4223 16.4435 15.4223 16.875C15.4223 17.7365 14.7145 18.4375 13.8445 18.4375H3.15545C2.28555 18.4375 1.57773 17.7365 1.57773 16.875C1.57773 16.0135 2.28555 15.3125 3.15545 15.3125ZM1.57773 3.125C1.57773 2.26349 2.28555 1.5625 3.15545 1.5625H13.8445C14.7145 1.5625 15.4223 2.26349 15.4223 3.125V12.1875C15.4223 13.049 14.7145 13.75 13.8445 13.75H3.15545C2.58106 13.75 2.04211 13.9027 1.57773 14.1693V3.125ZM4.77262 5.27344C4.77262 4.84192 5.12576 4.49219 5.56148 4.49219H11.478C11.9137 4.49219 12.2668 4.84192 12.2668 5.27344C12.2668 5.70496 11.9137 6.05469 11.478 6.05469H5.56148C5.12576 6.05469 4.77262 5.70496 4.77262 5.27344Z" fill="#9CA3AE"/>
</svg>
