<svg width="16" height="4" viewBox="0 0 16 4" fill="none" xmlns="http://www.w3.org/2000/svg">
<path d="M-8.74228e-08 2C-3.93402e-08 0.9 0.9 -1.35505e-07 2 -8.74228e-08C3.1 -3.93402e-08 4 0.9 4 2C4 3.1 3.1 4 2 4C0.9 4 -1.35505e-07 3.1 -8.74228e-08 2Z" fill="#414751"/>
<path d="M6 2C6 0.9 6.9 -1.35505e-07 8 -8.74228e-08C9.1 -3.93402e-08 10 0.9 10 2C10 3.1 9.1 4 8 4C6.9 4 6 3.1 6 2Z" fill="#414751"/>
<path d="M12 2C12 0.9 12.9 -1.35505e-07 14 -8.74228e-08C15.1 -3.93402e-08 16 0.9 16 2C16 3.1 15.1 4 14 4C12.9 4 12 3.1 12 2Z" fill="#414751"/>
</svg>
